<?xml version="1.0" encoding="UTF-8"?>
<svg version="1.1" xmlns="http://www.w3.org/2000/svg" width="192" height="192">
<path d="M0 0 C63.36 0 126.72 0 192 0 C192 63.36 192 126.72 192 192 C128.64 192 65.28 192 0 192 C0 128.64 0 65.28 0 0 Z " fill="#1F9CEE" transform="translate(0,0)"/>
<path d="M0 0 C5.98013634 4.54813067 10.28447634 10.15936893 11.375 17.6875 C11.86015964 23.13621591 11.92842828 27.24571465 8.375 31.6875 C4.92152695 35.57265718 2.8082894 36.54652071 -2.4375 37.0625 C-5.76337543 37.03795479 -7.49145916 36.42398282 -10.0625 34.3125 C-14.0231398 30.25525923 -13.89905688 27.64956029 -13.8515625 22.171875 C-13.5639947 19.01854534 -12.6537596 17.10640567 -10.625 14.6875 C-9.635 14.1925 -9.635 14.1925 -8.625 13.6875 C-8.934375 13.089375 -9.24375 12.49125 -9.5625 11.875 C-10.625 9.6875 -10.625 9.6875 -11.625 6.6875 C-13.79121868 5.5849827 -13.79121868 5.5849827 -16.625 4.6875 C-17.759375 4.15125 -18.89375 3.615 -20.0625 3.0625 C-28.21424055 0.08427464 -37.07092429 0.70410794 -45.0625 3.8125 C-55.08830009 8.59239672 -60.89599483 15.28146137 -64.75708008 25.75976562 C-67.42454431 34.54367966 -68.23824613 42.53343766 -68.125 51.6875 C-68.14046875 52.93789062 -68.1559375 54.18828125 -68.171875 55.4765625 C-68.11263356 69.78337018 -64.6070333 84.74341615 -54.16015625 95.140625 C-47.18578209 100.97183106 -41.4447953 103.06902257 -32.3125 103 C-31.1836438 102.99371582 -31.1836438 102.99371582 -30.03198242 102.98730469 C-21.78472686 102.81970291 -15.12103268 101.00243583 -8.625 95.6875 C-4.59204068 91.18345426 -2.52225955 86.37927864 -0.625 80.6875 C3.335 80.6875 7.295 80.6875 11.375 80.6875 C11.04982368 90.93055414 6.84742051 96.58278285 -0.5 103.5 C-10.70469944 112.25776444 -22.11929033 115.27041327 -35.4375 115.1875 C-36.49267822 115.18250488 -37.54785645 115.17750977 -38.63500977 115.17236328 C-50.81344383 114.90033479 -59.93969345 111.08493886 -69.625 103.6875 C-70.54539062 103.03007812 -70.54539062 103.03007812 -71.484375 102.359375 C-79.77166745 95.9788932 -84.2256085 86.3362779 -87.625 76.6875 C-88.016875 75.718125 -88.40875 74.74875 -88.8125 73.75 C-93.56865032 55.82297188 -91.45314489 33.93549048 -82.625 17.6875 C-77.84324835 10.19594445 -72.36330755 3.26085559 -64.625 -1.3125 C-64.02558594 -1.67472656 -63.42617187 -2.03695312 -62.80859375 -2.41015625 C-60.7877893 -3.51970024 -58.75439385 -4.42860067 -56.625 -5.3125 C-55.76003906 -5.68632813 -54.89507812 -6.06015625 -54.00390625 -6.4453125 C-35.68622649 -13.2578696 -16.25806585 -10.32411303 0 0 Z " fill="#00FCFE" transform="translate(135.625,43.3125)"/>
<path d="M0 0 C0.33 0.66 0.66 1.32 1 2 C1.66 2 2.32 2 3 2 C3 2.99 3 3.98 3 5 C3.99 5.33 4.98 5.66 6 6 C6 6.66 6 7.32 6 8 C6.99 8 7.98 8 9 8 C9 8.66 9 9.32 9 10 C9.66 10.33 10.32 10.66 11 11 C7.37 11 3.74 11 0 11 C0 7.37 0 3.74 0 0 Z " fill="#000000" transform="translate(0,181)"/>
<path d="M0 0 C0.33 0 0.66 0 1 0 C1 3.63 1 7.26 1 11 C-2.63 11 -6.26 11 -10 11 C-9.34 10.67 -8.68 10.34 -8 10 C-8 9.34 -8 8.68 -8 8 C-7.01 8 -6.02 8 -5 8 C-4.67 7.01 -4.34 6.02 -4 5 C-3.34 5 -2.68 5 -2 5 C-2 4.01 -2 3.02 -2 2 C-1.34 2 -0.68 2 0 2 C0 1.34 0 0.68 0 0 Z " fill="#000000" transform="translate(191,181)"/>
<path d="M0 0 C3.63 0 7.26 0 11 0 C11 3.63 11 7.26 11 11 C10.67 10.34 10.34 9.68 10 9 C9.34 9 8.68 9 8 9 C8 8.01 8 7.02 8 6 C7.01 5.67 6.02 5.34 5 5 C5 4.34 5 3.68 5 3 C4.01 3 3.02 3 2 3 C2 2.34 2 1.68 2 1 C1.34 0.67 0.68 0.34 0 0 Z " fill="#000000" transform="translate(181,0)"/>
<path d="M0 0 C3.63 0 7.26 0 11 0 C10.01 0.495 10.01 0.495 9 1 C9 1.66 9 2.32 9 3 C8.01 3 7.02 3 6 3 C5.67 3.99 5.34 4.98 5 6 C4.34 6 3.68 6 3 6 C3 6.99 3 7.98 3 9 C2.34 9 1.68 9 1 9 C0.67 9.66 0.34 10.32 0 11 C0 7.37 0 3.74 0 0 Z " fill="#000000" transform="translate(0,0)"/>
</svg>
