<svg id="Layer_1" data-name="Layer 1" xmlns="http://www.w3.org/2000/svg" viewBox="0 0 48 48"><defs><style>.cls-1{fill:none;stroke:#000;stroke-linecap:round;stroke-linejoin:round;stroke-width:2px;}</style></defs><title>apple</title><path class="cls-1" d="M43,21v1A39.74,39.74,0,0,1,33,42h-.11a5.82,5.82,0,0,1-8.78,0h-.22a5.82,5.82,0,0,1-8.78,0H15A39.74,39.74,0,0,1,5,22V21c0-6.08,5.37-11,12-11a12.67,12.67,0,0,1,7,2.06,11.69,11.69,0,0,1,1.24-.71c4.47,1.13,6.79.29,8-1.16C38.78,11.13,43,15.61,43,21Z"/><line class="cls-1" x1="20" y1="4" x2="24" y2="12"/><path class="cls-1" d="M33.2,10.19c-1.17,1.45-3.49,2.29-8,1.16-.39-.1-.81-.22-1.24-.35,0,0,0-7,10-7C34,4,35.06,7.87,33.2,10.19Z"/><rect class="cls-1" x="-491" y="-287" width="690" height="690"/></svg>