<svg xmlns="http://www.w3.org/2000/svg" viewBox="0 0 512 512"><g id="Doctor"><path d="M340.5962,309.2578H300.03v17.9693H282.061V367.793H300.03v17.9692h40.5659V367.793h17.9692V327.2271H340.5962Zm4.9692,30.9693V354.793H327.5962v17.9692H313.03V354.793H295.061V340.2271H313.03V322.2578h14.5659v17.9693Z"/><path d="M358.9844,281.0181,309.939,255.9822a71.0773,71.0773,0,0,0,11.6787-19.2952h2.9189a21.5062,21.5062,0,0,0,21.4815-21.4819v-15.062a21.5119,21.5119,0,0,0-19.2051-21.3619V160.1626a70.813,70.813,0,0,0-141.626,0v18.6186a21.5119,21.5119,0,0,0-19.2051,21.3619v15.062a21.5062,21.5062,0,0,0,21.4815,21.4819h2.9194A71.0722,71.0722,0,0,0,202.1349,256.07l-49.1178,24.9481a72.2474,72.2474,0,0,0-39.5879,64.6372V422.65H398.5708V345.6548A72.2475,72.2475,0,0,0,358.9844,281.0181ZM198.187,160.1626a57.813,57.813,0,0,1,115.626,0v18.4038c-71.1807-2.1274-72.9194-39.1592-72.959-40.9209a6.5,6.5,0,0,0-12.9824-.4214c-1.2144,16.5332-18.5586,29.92-29.6846,36.8648Zm-3.27,63.5244h-7.4531a8.4914,8.4914,0,0,1-8.4815-8.4819v-15.062a8.491,8.491,0,0,1,8.4815-8.4815h4.2241l.007,0a6.6237,6.6237,0,0,0,.6807-.0368c.0444-.0049.0883-.0146.1326-.02.1847-.0234.3678-.0512.5473-.09.0537-.0115.1064-.0281.16-.0411.17-.041.3382-.0858.5026-.14.0607-.02.12-.0442.18-.066.1554-.0563.3087-.1162.4584-.1839.0262-.0118.0535-.02.08-.0319,1.398-.6524,27.2588-12.938,39.7969-33.396a51.6043,51.6043,0,0,0,6.0479,8.1381c15.5434,17.1646,42.47,25.8677,80.0322,25.8677h4.2236a8.491,8.491,0,0,1,8.4815,8.4815v15.062a8.4914,8.4914,0,0,1-8.4815,8.4819H317.084a6.5,6.5,0,0,0-6.1719,4.4614,57.77,57.77,0,0,1-109.8237,0A6.5,6.5,0,0,0,194.9165,223.687ZM385.5708,409.65H126.4292V345.6548a59.3006,59.3006,0,0,1,32.4849-53.0518l14.2651-7.2456v27.85a30.1985,30.1985,0,0,0-26.1133,29.88v34.69h13v-34.69a17.1779,17.1779,0,0,1,17.1582-17.1587h4.91a17.1781,17.1781,0,0,1,17.1587,17.1587v34.69h13v-34.69a30.1987,30.1987,0,0,0-26.1133-29.88v-34.453l25.8331-13.1213a70.7335,70.7335,0,0,0,88.0769-.0831l52.9865,27.0477a59.3053,59.3053,0,0,1,32.4951,53.0571Z"/></g></svg>