<svg xmlns="http://www.w3.org/2000/svg" width="400" height="74.51"><g fill-rule="evenodd"><path fill="#f7f9fb" d="M351.917 25.619c-.55.032-1.237.169-1.526.303-.288.135-.633.245-.766.245-.787 0-4.125 2.653-4.125 3.278 0 .112-.194.564-.43 1.005-.388.722-.431.987-.442 2.717-.018 3.012.775 4.28 3.537 5.656 1.374.685 1.973.91 4.418 1.665q4.143 1.279 2.717 2.798c-.643.684-3.865.466-5.967-.403-.913-.378-1.742-.789-1.835-.911-.046-.062-.29-.164-.541-.227s-.457-.181-.457-.263-.113-.149-.25-.149-.25.141-.25.313a.78.78 0 0 1-.25.521c-.137.114-.25.339-.25.5s-.113.386-.25.5-.25.339-.25.5-.113.386-.25.5-.25.306-.25.428c0 .121-.187.573-.417 1.004s-.416.883-.416 1.005c0 .244 1.302.896 1.791.896.17 0 .381.073.47.161.193.193 2.165.839 2.56.839.153 0 .35.068.437.152.163.157 2.462.513 4.075.631 6.45.471 11.009-4.8 8.766-10.138-.59-1.405-3.652-3.812-4.85-3.812-.116 0-.426-.112-.689-.249s-.6-.249-.75-.25c-.15 0-.487-.113-.75-.25-.262-.137-.6-.249-.75-.25-.15 0-.487-.113-.75-.25-.262-.137-.639-.249-.838-.25-.486-.001-1.556-1.062-1.556-1.544 0-1.074 1.518-1.653 3.167-1.208.504.136 1.091.248 1.305.249s1.041.327 1.838.723 1.551.687 1.675.646c.383-.128.849-.685.849-1.016 0-.173.112-.358.25-.411.137-.053.25-.239.25-.414s.097-.399.215-.497.432-.631.696-1.184l.48-1.005-.388-.337c-.213-.185-.455-.336-.538-.336s-.604-.225-1.158-.5c-.555-.275-1.104-.5-1.222-.5s-.429-.112-.691-.249c-.263-.137-.679-.249-.925-.25a2.9 2.9 0 0 1-.833-.144c-.498-.185-2.604-.314-3.886-.238m20.583.056c-1.153.096-1.729.243-2.833.722-4.367 1.896-5.804 7.86-2.669 11.074.961.985 1.508 1.315 3.252 1.958.458.17 1.021.404 1.25.522s.618.214.865.215c.247 0 .495.076.552.167.056.092.229.17.385.173.155.003.581.15.948.327s.779.327.917.332c.839.031 1.465 1.162 1.043 1.885l-.311.533-1.741.048c-1.201.034-1.922-.024-2.325-.184-.907-.362-1.712-.639-2.145-.737-.217-.05-.797-.304-1.288-.567-1.026-.547-1.702-.615-1.832-.185-.048.161-.545 1.237-1.103 2.393s-.964 2.182-.903 2.282c.157.253 2.512 1.367 2.892 1.367.172 0 .384.067.471.149.206.194 1.525.507 2.992.71.641.089 1.552.242 2.023.34 2.136.445 6.339-.605 7.983-1.995 2.83-2.392 2.612-8.871-.349-10.401-2.144-1.107-2.912-1.47-3.11-1.47a.67.67 0 0 1-.389-.142c-.087-.078-1.058-.428-2.158-.777s-2.025-.697-2.056-.774c-.03-.077-.159-.14-.285-.14s-.422-.206-.658-.458c-1.591-1.701 2.177-2.843 4.774-1.446.244.13.563.237.71.237.146 0 .655.188 1.13.417 1.138.549 1.635.551 1.635.008 0-.224.103-.468.23-.541.312-.181 1.972-3.525 1.849-3.724-.054-.087-.525-.355-1.047-.594a71 71 0 0 1-1.204-.563c-.141-.07-.516-.183-.834-.251s-.653-.181-.744-.252c-.092-.071-.505-.183-.917-.25s-.863-.178-1-.247c-.378-.189-2.593-.278-4-.161m-299.417.314c-.55.158-1.211.375-1.469.482-.258.108-.534.196-.614.196-.194 0-2.271 1.42-2.984 2.041-1.264 1.1-3.183 4.15-3.183 5.059 0 .197-.112.628-.25.957-.348.834-.347 4.335.001 5.003.137.263.249.615.249.782 0 .266 1.363 3.125 1.704 3.574 1.174 1.547 1.635 2.038 2.502 2.669.565.411 1.112.748 1.215.748s.364.188.579.417c.216.229.547.417.738.417.19.001.568.117.839.259.767.399 3.942.671 5.086.435.518-.107 1.134-.195 1.37-.195s.644-.112.907-.249c.262-.137.601-.249.753-.25.373-.001 1.916-.793 2.665-1.368.334-.256.65-.466.702-.466.204 0 1.206-1.142 1.503-1.714.327-.628.277-1.119-.115-1.119-.126 0-.371-.156-.543-.347s-.728-.543-1.234-.782c-.507-.24-1.111-.607-1.343-.817-.683-.616-1.45-.693-1.651-.164-.662 1.742-4.584 2.801-6.59 1.778-3.092-1.576-4.408-6.352-2.572-9.335.085-.138.197-.363.248-.5.659-1.747 3.337-2.86 5.654-2.35.85.187 1.955.666 2.056.892.03.068.155.125.276.125.218 0 .924.742 1.237 1.3.157.281.711.086 1.431-.503l.583-.482c.23-.189.926-.683 1.548-1.097l1.131-.752-.444-.775c-.471-.821-1.37-1.858-1.611-1.858-.079 0-.49-.264-.913-.588s-.963-.632-1.199-.686a3.2 3.2 0 0 1-.801-.332c-1.125-.701-5.588-.944-7.461-.405m20.695-.211c-.061.061-.114.305-.117.541a1.5 1.5 0 0 1-.25.755c-.134.177-.244.529-.244.781s-.07.501-.154.554c-.085.052-.204.338-.266.635-.061.296-.442 1.538-.846 2.759s-.734 2.318-.734 2.439-.112.435-.249.697c-.137.263-.25.6-.25.75-.001.15-.113.488-.25.75-.137.263-.25.6-.25.75-.001.15-.113.488-.25.75-.137.263-.25.642-.25.843-.001.201-.076.411-.168.468s-.167.267-.168.468c0 .201-.113.58-.25.843-.137.262-.249.577-.249.7 0 .247-1.125 3.842-1.328 4.244-.071.141-.185.516-.253.834-.069.318-.171.653-.229.744-.103.165-.501 1.549-.516 1.792-.004.069 1.334.125 2.974.125h2.981l.269-.411c.148-.226.269-.539.269-.696 0-.374.631-2.359.92-2.893l.225-.417 3.119-.045c3.402-.05 3.736.032 3.736.913 0 .219.104.601.23.849.127.247.286.786.355 1.196.251 1.51.238 1.504 3.393 1.501 3.166-.002 3.37-.06 3.047-.865a12 12 0 0 1-.358-1.049 21 21 0 0 0-.772-2.214c-.126-.301-.228-.654-.228-.786 0-.131-.103-.485-.229-.786a15.3 15.3 0 0 1-.848-2.63c-.116-.505-.288-1.104-.383-1.334a12 12 0 0 1-.373-1.166c-.11-.413-.262-.872-.339-1.021-.076-.15-.19-.544-.252-.877-.063-.333-.174-.643-.247-.688-.074-.046-.184-.382-.246-.748-.062-.365-.181-.707-.265-.759-.083-.051-.152-.258-.153-.459 0-.201-.113-.58-.25-.842-.137-.263-.249-.642-.249-.844s-.11-.511-.244-.689c-.135-.178-.247-.462-.25-.632s-.231-.98-.506-1.801-.5-1.632-.5-1.803-.131-.541-.291-.823l-.292-.512-3.431-.001c-1.886-.001-3.48.049-3.541.11m17.132.097c-.044.115-.06 5.346-.036 11.625l.043 11.417 2.5.049c1.375.027 2.743.005 3.041-.049l.542-.099v-5.792c0-4.232.053-5.846.197-5.99.182-.182 2.951 5.109 2.978 5.692.005.104.249.676.542 1.272l.533 1.083h3.167l.951-1.833c.524-1.008.955-2.004.959-2.214.003-.209.119-.423.256-.476.138-.052.25-.24.25-.416 0-.735 1.381-2.977 1.834-2.977.107 0 .166 1.989.166 5.634 0 6.928-.363 6.221 3.168 6.162l2.749-.046.043-11.625.043-11.625h-3.226c-3.336 0-3.777.091-3.777.783 0 .095-.525 1.214-1.168 2.487-.643 1.272-1.246 2.594-1.34 2.938s-.243.625-.331.625-.161.113-.161.251c0 .456-1.499 3.403-1.818 3.574-.387.207-.47.107-1.092-1.325a91 91 0 0 0-1.53-3.206c-.583-1.167-1.06-2.205-1.06-2.305 0-.272-1.357-3.194-1.64-3.531-.314-.374-6.642-.452-6.783-.083m28.797 11.413.043 11.629 6.753-.004c7.147-.004 7.598-.045 9.497-.877 2.15-.942 3.539-3.495 3.162-5.812-.254-1.562-1.316-3.563-2.079-3.917-2.062-.958-2.303-1.276-1.425-1.884 1.844-1.278 3.354-5.478 2.336-6.496-.088-.088-.161-.325-.161-.525 0-.393-1.146-2.03-1.943-2.776-.833-.778-1.577-.852-9.183-.912l-7.043-.054zm23.167.004.043 11.625 7.75.046c9.666.058 8.518.42 8.462-2.676l-.046-2.537-4.916-.041c-5.9-.049-5.5.117-5.5-2.293 0-1.913-.429-1.749 4.597-1.749h4.069v-4.834h-4c-4.844 0-4.666.075-4.666-1.974 0-2.031-.27-1.932 5.434-1.991l4.732-.049v-5.152h-16.002zm20.167 0 .042 11.625 2.584.047c3.726.069 3.333.469 3.333-3.395 0-1.927.07-3.389.173-3.58.403-.754 3.16-.294 3.16.527 0 .1.16.407.355.68.344.484.579.884 1.645 2.804 1.86 3.348 1.291 3.001 4.901 2.997 2.814-.002 3.747-.116 3.284-.403a.44.44 0 0 1-.185-.337c0-.123-.267-.621-.594-1.107s-.795-1.3-1.04-1.808c-.244-.509-.488-.963-.54-1.009-.164-.142-1.326-2.119-1.326-2.256 0-.071-.187-.375-.416-.675-.58-.76-.537-.941.458-1.94 1.831-1.839 2.882-5.283 2.225-7.293-.147-.448-.267-.921-.267-1.05 0-.544-.937-1.949-2.053-3.082-2.159-2.189-2.95-2.37-10.356-2.37h-5.426zm19.458-10.964c.066.363.311 1.057.543 1.541.447.931.738 1.717.948 2.558.07.28.326.905.569 1.388.242.484.441 1.009.441 1.167s.11.433.245.611c.134.178.247.516.25.75.003.235.115.572.25.75.134.178.247.446.25.595s.117.365.255.479c.137.114.25.367.251.562 0 .325.661 2.105 1.254 3.38.135.288.245.636.245.772s.112.462.249.725.249.605.25.76.183.624.404 1.042c.222.417.453.98.512 1.252.06.271.291.871.513 1.332s.405.973.405 1.137c0 .163.105.447.234.63.128.184.26.519.292.746l.058.412 2.7.045 2.7.046.591-1.23c.326-.676.592-1.354.592-1.507s.225-.699.5-1.214c.275-.516.499-1.058.498-1.205s.28-.849.625-1.559c.683-1.406 1.078-1.642 1.401-.835.1.252.399.926.663 1.497s.48 1.144.48 1.274.225.69.5 1.245c.275.554.5 1.124.5 1.267s.243.71.54 1.259l.541 1h2.459c2.643 0 3.126-.153 3.126-.991 0-.179.188-.677.417-1.108s.417-.946.417-1.144.11-.506.244-.683c.135-.178.248-.474.251-.657s.23-.784.505-1.334c.274-.55.499-1.154.499-1.343s.111-.489.245-.666c.135-.178.247-.482.25-.676.003-.193.231-.773.506-1.288s.502-1.107.505-1.315.115-.524.25-.702.245-.486.245-.685c0-.198.225-.783.5-1.298s.5-1.122.5-1.347c0-.226.073-.455.162-.51s.246-.416.348-.802a10 10 0 0 1 .588-1.506c.221-.443.402-.91.402-1.036 0-.127.105-.477.233-.778.719-1.685 1.101-2.757 1.1-3.093v-.379l-3.207.046-3.208.045-.167.75c-.093.412-.213.825-.268.917-.055.091-.343.954-.641 1.916-.298.963-.647 1.997-.775 2.298-.129.301-.234.634-.234.74 0 .239-1.144 3.952-1.325 4.301-.073.141-.187.502-.253.803a5 5 0 0 1-.353.995c-.129.245-.234.611-.235.812s-.076.411-.167.468-.167.312-.167.567c0 .538-.536 1.102-.91.958-.141-.054-.257-.248-.257-.431s-.102-.579-.228-.88a22.4 22.4 0 0 1-1.056-3.273c-.052-.216-.026-.441.057-.5.084-.059.33-.67.547-1.358.217-.687.459-1.321.537-1.408s.143-.322.143-.521c0-.2.113-.457.25-.571.138-.114.25-.451.25-.75 0-.298.113-.636.25-.75.138-.114.25-.451.25-.75 0-.298.113-.636.25-.75.138-.114.25-.456.25-.76s.066-.594.147-.644c.169-.104.687-1.614.687-2.002 0-.225-.351-.26-2.563-.26-2.763 0-2.823.018-3.02.917a6 6 0 0 1-.249.833c-.077.183-.221.652-.321 1.041-.474 1.857-.563 2.161-.781 2.651-.128.288-.233.647-.233.796 0 .733-.904.414-1.046-.369-.088-.481-.352-1.27-.726-2.167-.125-.301-.228-.728-.228-.948 0-.221-.066-.442-.147-.492-.082-.051-.2-.441-.264-.868-.214-1.426-.14-1.394-3.224-1.394h-2.721l.112.375c.062.206.217.541.345.744s.232.545.232.76.11.536.245.714.247.515.25.75.115.572.25.75.247.515.25.75.115.572.25.75.25.511.255.74a1.5 1.5 0 0 0 .256.74c.134.178.244.519.244.759 0 .239.069.506.154.593.897.925.982 2.927.217 5.158-.868 2.533-1.458 2.447-2.045-.297-.114-.529-.271-1.002-.349-1.051-.079-.049-.143-.241-.143-.428s-.1-.577-.223-.865c-.323-.762-.622-1.619-.766-2.196a4.6 4.6 0 0 0-.319-.864 1.9 1.9 0 0 1-.198-.746 1.4 1.4 0 0 0-.25-.71c-.134-.178-.244-.474-.244-.658 0-.359-.891-3.327-1.271-4.232-.126-.301-.229-.68-.229-.842 0-.637-.295-.694-3.595-.694h-3.194zm37.744-.453c-.043.115-.06 5.346-.036 11.625l.043 11.417 7.898.043c5.778.032 7.959-.008 8.129-.149.182-.152.222-.709.186-2.627l-.046-2.434-4.903-.044c-5.778-.052-5.347.111-5.347-2.026 0-2.158-.305-2.013 4.241-2.016 4.694-.003 4.28.244 4.222-2.51l-.047-2.237-3.907-.045c-4.746-.055-4.509.053-4.509-2.044 0-2.03-.354-1.895 5.233-1.995l4.683-.083.048-2.167c.027-1.191.007-2.335-.044-2.541l-.093-.375h-7.836c-6.114 0-7.853.045-7.915.208m20.025.055c-.056.145-.101 5.356-.101 11.58v11.317l.375.091c.206.05 3.975.07 8.375.045l8-.046V43.75l-5.084-.041c-4.946-.04-5.091-.051-5.375-.394-.269-.325-.291-1.009-.291-9v-8.648h-2.899c-2.49 0-2.913.037-3 .263m19.773 11.362.042 11.625 8.065.043c5.903.032 8.126-.008 8.296-.149.182-.152.222-.709.185-2.627l-.046-2.434-5.083-.041c-4.947-.04-5.091-.051-5.375-.394-.27-.325-.292-1.009-.292-9v-8.648h-5.835zm19.564-11.25c-.174.648-.119 22.066.058 22.53l.162.428h2.903c2.493 0 2.917-.037 3.004-.264.056-.145.101-2.615.101-5.49 0-6.322-.003-6.317 2.134-3.377.575.791 4.196 5.235 4.757 5.839.235.252.652.787.928 1.188s.791 1.039 1.143 1.417l.641.687h2.276c2.08 0 2.291-.028 2.449-.322.186-.348.25-21.953.067-22.636-.133-.496-5.772-.602-5.96-.112-.056.145-.101 2.766-.101 5.824 0 3.689-.059 5.596-.175 5.667-.166.103-1.507-1.24-1.893-1.895-.247-.421-1.75-2.314-2.266-2.854a10 10 0 0 1-.861-1.096c-.392-.581-.706-.976-1.51-1.903-.117-.134-.42-.53-.674-.879a15 15 0 0 0-.75-.953 16 16 0 0 1-1.247-1.543l-.46-.631h-2.313c-2.257 0-2.315.009-2.413.375m25.436 11.25.042 11.625 7.883.043c5.245.029 7.992-.015 8.209-.131.449-.24.506-4.891.061-5.061-.145-.056-2.413-.102-5.041-.104-5.701-.003-5.219.193-5.159-2.094l.047-1.82 4.25-.093c2.338-.052 4.271-.108 4.297-.125s.025-1.063 0-2.324l-.047-2.291-4.07-.045c-2.66-.029-4.146-.108-4.291-.229-.338-.28-.302-2.867.047-3.399l.269-.411H341v-5.166h-16.002zm-173.868-6.205c1.22.63 1.38 2.381.301 3.288-.704.592-5.539.732-5.771.167-.241-.588-.139-3.376.13-3.546.435-.274 4.776-.201 5.34.091m42.303.067c1.308.668 1.874 2.148 1.38 3.61-.484 1.434-.849 1.59-3.576 1.532l-2.197-.046-.046-2.398c-.06-3.081-.104-3.019 2.162-3.019 1.298 0 1.781.069 2.277.321m-95.681 1.804c.206.436.376 1.054.378 1.375s.114.729.249.907.245.642.245 1.032.069.751.155.804.206.508.269 1.012.181.957.262 1.007c.254.157.165 1.029-.117 1.137-.552.212-3.663.108-3.993-.133-.31-.227-.311-.26-.031-1.042.159-.444.289-.961.289-1.15-.001-.189.109-.489.244-.667.134-.178.249-.623.255-.99s.121-.812.255-.99a1.44 1.44 0 0 0 .245-.745c0-.231.121-.761.268-1.176.148-.416.296-.849.328-.964.112-.388.324-.211.699.583m53.533 6.7c1.931.373 2.39 3.025.672 3.883-.649.324-5.683.435-6.156.136-.543-.344-.442-3.917.114-4.062.524-.137 4.607-.104 5.37.043"/><path fill="#0474bc" d="M0 37.25V74.5h400V0H0zm45.833-14.083.084 5.583 5.666.093c3.117.052 5.686.108 5.709.125s.041 3.744.041 8.282-.018 8.264-.041 8.282c-.023.017-2.592.073-5.709.125l-5.666.093-.044 5.402c-.03 3.648-.104 5.475-.229 5.625-.149.18-1.712.223-8.169.223h-7.983l-.163-.428c-.093-.244-.162-2.665-.162-5.666v-5.239h-5.345c-3.365 0-5.463-.064-5.666-.173-.505-.27-.505-16.218 0-16.488.203-.109 2.299-.173 5.66-.173h5.338l.048-5.506c.041-4.676.086-5.53.298-5.665.152-.096 3.393-.143 8.25-.119l8 .04zm-13.125-2.391c-.16.066-.208 1.338-.208 5.565 0 5.248-.014 5.488-.322 5.653-.202.108-2.228.173-5.428.173s-5.226.064-5.428.172c-.396.212-.511 9.405-.122 9.794.147.148 1.633.2 5.649.2 4.815 0 5.46.031 5.55.264.055.145.101 2.694.101 5.663v5.4l.375.092c.206.05 2.475.07 5.042.045l4.666-.047.044-5.494c.028-3.504.107-5.557.217-5.667.108-.108 2.197-.203 5.622-.256l5.451-.083v-10l-5.44-.044c-4.265-.034-5.479-.091-5.623-.264-.122-.148-.197-2.032-.227-5.706l-.044-5.486-4.833-.03c-2.658-.016-4.927.009-5.042.056m321.195 4.369c.05.08.673.181 1.385.225 1.272.079 3.579.743 4.291 1.236.181.125.429.227.552.227.5 0 2.035.864 2.021 1.137-.008.154-.299.805-.646 1.447-.347.641-.944 1.785-1.327 2.541-.818 1.618-.811 1.616-2.617.737-2.142-1.043-2.354-1.099-4.226-1.106-1.563-.005-1.754.026-1.806.299-.172.883.557 1.557 2.019 1.87.294.062.609.172.701.242s.429.183.75.25.658.18.75.25.407.18.7.242c2.594.555 6.05 3.433 6.05 5.037 0 .203.086.421.191.486.407.252.035 3.776-.524 4.959-.881 1.864-2.999 3.591-4.834 3.942-.412.079-1.087.232-1.5.339-.871.228-5.568.115-5.885-.141-.109-.088-.592-.213-1.073-.278-.481-.064-.917-.185-.968-.268s-.295-.152-.542-.152c-.247-.001-.663-.113-.926-.25-.262-.137-.548-.249-.635-.249-.401 0-2.637-1.234-2.637-1.456 0-.135.187-.619.416-1.075.23-.457.417-.965.417-1.129a.76.76 0 0 1 .25-.507c.137-.114.25-.339.25-.5s.113-.386.25-.5.25-.286.25-.381c0-1.06 1.014-1.866 1.745-1.387.226.147.516.268.645.268.13 0 .329.112.443.25.114.137.339.25.5.25s.386.112.5.25c.114.137.367.25.562.251s.57.113.832.25c.263.137.722.249 1.021.249s.862.112 1.252.25c1.261.445 2.788.056 2.596-.661a3 3 0 0 1-.094-.518c-.002-.207-1.328-.904-1.719-.904-.145 0-.31-.075-.366-.167-.057-.092-.268-.167-.469-.168-.2 0-.579-.113-.842-.25s-.685-.249-.938-.249-.554-.112-.668-.25c-.114-.137-.33-.25-.479-.251-.149 0-.463-.101-.699-.224a5 5 0 0 0-.833-.328c-.223-.058-.624-.294-.89-.526-.266-.231-.545-.421-.619-.421s-.395-.228-.713-.507c-1.778-1.562-2.279-5.348-1.024-7.754.14-.269.255-.61.256-.758.001-.389 2.468-2.666 3.343-3.087 1.721-.827 5.29-1.521 5.561-1.082m22.09.195c.775.089 1.484.237 1.575.328s.361.165.6.165.581.11.758.245.5.247.715.25.59.112.833.242c.244.131.8.401 1.237.6 1.279.583 1.289.731.19 2.924-.526 1.048-1.018 1.906-1.095 1.906s-.139.141-.139.313c0 .706-1.328 1.039-1.95.489-.165-.146-.556-.319-.869-.386s-.906-.3-1.317-.519c-.854-.454-3.769-.592-4.164-.197-.632.632.396 1.967 1.514 1.967.214 0 .534.11.712.244.178.135.476.247.663.25.416.007 2.268.641 2.486.852.087.085.295.154.463.154.394 0 2.166.894 2.45 1.236.121.145.307.264.415.264 1.164 0 2.346 2.655 2.347 5.27v2.186l-.719 1.418c-1.802 3.553-7.217 5.049-12.948 3.578l-1.738-.446c-.407-.103-1.475-.54-2.375-.97-1.986-.949-1.971-.877-.72-3.37.504-1.005.916-1.965.916-2.132 0-1.217 1.136-1.353 3.064-.367.68.348 1.468.683 1.751.745s.558.183.61.267.43.154.841.154c.41 0 1.014.112 1.343.25 1.21.505 2.391.104 2.391-.812 0-.442-2.001-1.603-2.767-1.606-.174 0-.531-.113-.793-.25-.263-.137-.6-.249-.75-.25-.15 0-.488-.113-.75-.25-.263-.137-.541-.249-.619-.249-1.094 0-4.138-2.327-4.838-3.7-.42-.823-.718-3.098-.486-3.709.094-.245.17-.667.17-.939 0-1.831 3.368-5.636 5.009-5.657a1.45 1.45 0 0 0 .731-.25c.178-.135.628-.249 1-.254a8.3 8.3 0 0 0 1.343-.153c.367-.079.855-.11 1.084-.069a49 49 0 0 0 1.826.238m-298.121-.003c1.355.128 1.977.269 2.566.583.428.227.948.413 1.154.413.207 0 .695.266 1.083.591.389.325.865.672 1.058.772.472.246.874.681 1.541 1.673.876 1.302.84 1.375-1.441 2.884-.687.455-1.4.966-1.583 1.135-.854.787-1.901.821-1.922.061-.009-.306-.602-.949-.876-.949-.134 0-.338-.113-.452-.25a.75.75 0 0 0-.5-.25c-.161 0-.386-.113-.5-.25-.232-.28-3.404-.373-3.57-.105-.049.08-.298.19-.552.246-.564.122-1.711 1.108-1.711 1.471 0 .145-.113.357-.25.471a.75.75 0 0 0-.25.5c0 .161-.113.386-.25.5-.144.12-.25.483-.25.856 0 .357-.09.792-.199.967-.285.456.222 2.957.777 3.837.232.367.422.707.422.756 0 .343 1.727 1.751 2.148 1.751.263 0 .571.112.685.25.766.923 4.652-.581 5.274-2.042.319-.749 1.284-.617 2.325.321.414.372 1.551.971 1.845.971.113 0 .266.099.339.221.074.121.377.398.675.614.818.595.644 1.424-.583 2.766-.935 1.023-3.371 2.566-4.053 2.566-.162 0-.507.106-.767.235-1.211.605-6.125.928-6.618.435-.094-.094-.324-.171-.512-.171-.188-.001-.556-.113-.819-.25s-.595-.249-.738-.249c-.656 0-4.701-3.171-4.701-3.685 0-.069-.116-.24-.257-.381-.415-.416-1.91-3.404-1.91-3.819 0-.21-.072-.454-.159-.541-.177-.177-.535-2.337-.537-3.241-.005-2.127 1.235-5.595 2.529-7.073 1.554-1.774 3.889-3.594 4.614-3.594.19 0 .439-.112.553-.25.114-.137.446-.25.737-.25s.623-.093.738-.208c.18-.18 1.185-.341 2.692-.433.229-.014 1.221.051 2.205.145m23.255.295c.19.165.397.578.461.919s.183.66.264.711.148.295.148.544.102.601.227.782.28.685.344 1.121.224.999.355 1.25c.131.252.239.622.24.823 0 .201.076.411.167.468s.167.267.168.468.113.58.25.843c.137.262.249.588.249.725 0 .136.1.483.223.772.397.937.647 1.681.736 2.192.048.275.189.648.314.829s.229.518.232.75.116.567.25.745c.135.177.244.477.243.666-.003.37.885 3.327 1.268 4.224.129.301.234.649.234.773s.112.44.249.702c.137.263.249.597.25.744.001.146.118.5.261.787.15.301.238.822.208 1.234l-.051.713-3.158.045-3.157.046-.378-.463c-.208-.254-.381-.628-.385-.831-.003-.203-.112-.616-.242-.917s-.361-.976-.514-1.5c-.34-1.168-.331-1.165-3.833-1.096l-2.5.049-.051.417c-.029.229-.16.653-.292.942s-.243.663-.246.833c-.007.437-.561 1.987-.822 2.301-.189.227-.671.258-3.482.219l-3.263-.045.05-.834c.028-.458.157-.951.287-1.096s.236-.449.236-.677c0-.227.11-.559.244-.736a1.5 1.5 0 0 0 .256-.741 1.5 1.5 0 0 1 .255-.74c.135-.178.247-.515.25-.75s.115-.572.25-.75a1.47 1.47 0 0 0 .248-.75c.002-.234.227-1.06.5-1.835s.499-1.562.502-1.75.115-.487.25-.665.245-.488.245-.689.112-.581.249-.843c.137-.263.249-.6.25-.75 0-.15.113-.488.25-.75.137-.263.249-.646.25-.853 0-.206.066-.375.145-.375.08 0 .187-.31.238-.69s.161-.736.246-.792.201-.4.259-.766.182-.691.275-.723c.094-.031.171-.294.172-.584.001-.291.113-.743.25-1.005.137-.263.249-.6.25-.75s.113-.488.25-.75c.137-.263.249-.667.249-.897 0-.231.156-.673.347-.981l.347-.562h3.544c3.17 0 3.581.032 3.889.299m16.793-.171c.221.16 1.747 3.286 1.747 3.58 0 .125.562 1.336 1.25 2.692s1.25 2.555 1.25 2.665c0 .497.628 1.432.813 1.21.415-.5 1.353-2.494 1.353-2.875 0-.226.113-.453.25-.506.138-.053.25-.227.25-.387 0-.159.523-1.347 1.161-2.638.639-1.292 1.21-2.542 1.269-2.778.25-.995.623-1.091 4.246-1.091 1.813 0 3.416.046 3.561.101.454.175.396 23.65-.059 23.893-.509.273-6.258.228-6.488-.05-.125-.15-.199-1.977-.229-5.625-.037-4.54-.078-5.336-.259-4.985-.119.229-.324.604-.456.833-.133.229-.242.539-.243.688s-.115.365-.253.479c-.137.114-.25.316-.25.449 0 .415-2.012 4.353-2.276 4.454-.138.053-.944.097-1.792.097-1.908 0-2.161-.2-2.859-2.257-.341-1.003-1.93-4.285-2.155-4.449a.66.66 0 0 0-.293-.125c-.068-.002-.125 2.252-.125 5.008 0 6.304.392 5.656-3.416 5.656-2.867 0-3.083-.022-3.244-.322-.264-.493-.237-23.38.027-23.645.224-.223 6.917-.291 7.22-.072m37.413.273c2.429 1.302 3.818 4.289 3.222 6.933-.135.595-.315 1.154-.4 1.241s-.155.327-.155.534c0 .206-.098.435-.217.508s-.378.365-.575.648c-.198.283-.625.696-.949.917-.655.446-.746.652-.289.652.167 0 .555.225.863.5s.643.5.743.5c1.076 0 2.45 4.051 2.036 6-.447 2.101-2.654 4.5-4.14 4.5-.223 0-.488.083-.59.184-.532.532-14.771.977-15.549.486-.4-.253-.464-23.349-.065-23.748.444-.444 15.215-.31 16.065.145m23.834-.238c.507.32.453 4.993-.064 5.551l-.42.453h-9.35v1.314c0 1.63-.345 1.514 4.536 1.517 4.519.003 4.131-.269 4.131 2.899 0 2.981.343 2.769-4.495 2.773-4.475.003-4.199-.109-4.137 1.678l.049 1.402 4.833.041c5.954.051 5.417-.269 5.417 3.228 0 3.529 1.079 3.148-8.921 3.148h-8.254l-.163-.428c-.332-.873-.209-23.362.129-23.559.382-.222 16.358-.238 16.709-.017m16.603.156c2.004.652 3.85 2.126 4.612 3.681.202.413.427.794.499.847s.177.391.234.75.185.707.286.772c.118.077.174.843.16 2.167l-.023 2.048-.754 1.449c-.415.797-1.099 1.808-1.519 2.247-.914.953-.903.837-.2 2.112.311.564.705 1.287.875 1.608s.356.621.411.667c.056.046.364.571.684 1.167.321.595.898 1.597 1.283 2.226.46.751.683 1.295.65 1.583l-.051.441-3.442.045-3.442.045-.516-.653c-.285-.358-.517-.748-.517-.865s-.103-.331-.228-.476c-.216-.248-.664-1.019-1.527-2.628a14 14 0 0 0-.722-1.186 5 5 0 0 1-.513-.923c-.192-.506-.634-.65-1.771-.578l-.822.052-.046 3.324c-.058 4.286.268 3.926-3.554 3.926-2.875 0-2.973-.011-3.224-.37-.422-.603-.391-23.37.032-23.617.597-.348 12.02-.227 13.145.139m13.621.265c.081.275.209.622.284.771s.187.544.249.877c.063.333.18.646.262.697.081.05.148.255.148.456.001.201.109.571.24.823.131.251.291.806.355 1.233.064.426.218.97.343 1.209.124.238.226.598.227.799s.076.411.168.468c.091.057.167.267.167.468.001.201.113.58.25.843.137.262.249.604.249.76 0 .155.11.428.245.605.135.178.247.516.25.75.003.235.115.573.25.75s.247.516.25.75c.003.235.115.573.25.75s.247.487.25.685c.008.542.18.889.44.889.129 0 .232-.166.233-.375.001-.206.113-.59.25-.852.137-.263.249-.651.249-.863 0-.213.112-.499.25-.636.297-.298.327-1.152.057-1.656a4.6 4.6 0 0 1-.318-.864c-.145-.577-.444-1.434-.766-2.196-.123-.289-.223-.636-.223-.772 0-.137-.112-.463-.249-.725-.137-.263-.249-.631-.25-.819s-.07-.413-.153-.5c-.084-.087-.397-.909-.695-1.825-.299-.917-.643-1.815-.765-1.996-.661-.98-.354-1.088 3.084-1.085 3.109.003 3.119.005 3.281.873.065.343.175.624.246.624s.181.412.243.914c.063.503.184.958.27 1.01.085.053.155.249.155.436s.105.576.234.865.285.75.347 1.025l.113.5.32-.393c.175-.217.319-.568.319-.782s.065-.429.145-.478.196-.41.258-.801c.202-1.269.99-3.442 1.33-3.668.258-.172 5.635-.154 5.909.02.173.11.183.223.042.487a1.9 1.9 0 0 0-.189.729 1.4 1.4 0 0 1-.25.71 1.5 1.5 0 0 0-.25.75 1.5 1.5 0 0 1-.25.75c-.135.178-.245.49-.245.695s-.125.621-.278.926c-.455.908-.507 1.041-.633 1.614a4.8 4.8 0 0 1-.354.994c-.128.246-.233.574-.234.729s-.067.323-.149.373c-.081.051-.196.352-.256.67s-.219.787-.353 1.043c-.28.532-.175 1.756.197 2.294.124.181.227.533.227.782s.073.499.164.555c.09.055.231.341.313.635l.148.533.271-.62c.149-.34.27-.794.27-1.008s.081-.469.18-.568.242-.433.319-.742c.165-.667.489-1.614.69-2.018.08-.159.145-.422.146-.583 0-.162.1-.485.222-.718a4.3 4.3 0 0 0 .329-1c.124-.67 1.087-3.774 1.302-4.199.08-.159.146-.422.147-.583 0-.162.113-.509.25-.772.137-.262.249-.642.249-.843s.11-.511.244-.689c.135-.178.247-.447.25-.598.009-.433.341-.476 3.697-.476 3.72 0 4.17.139 3.659 1.128-.082.159-.277.626-.432 1.039s-.388.975-.516 1.25a5.4 5.4 0 0 0-.34 1.045c-.058.3-.171.586-.251.635s-.145.226-.145.393a.76.76 0 0 1-.25.51c-.137.114-.25.409-.25.656 0 .246-.11.593-.244.771-.135.178-.247.482-.25.675s-.231.773-.506 1.288c-.275.516-.502 1.108-.505 1.316a1.4 1.4 0 0 1-.25.701c-.135.178-.245.478-.245.667-.001.189-.225.793-.5 1.343-.274.55-.499 1.123-.499 1.273s-.113.487-.25.75c-.137.262-.249.598-.25.745 0 .148-.225.71-.499 1.25-.273.54-.498 1.099-.5 1.242-.001.144-.189.65-.418 1.125s-.417.997-.417 1.16c0 .164-.105.448-.234.631-.128.184-.321.659-.428 1.056-.381 1.417-.619 1.518-3.551 1.518-2.447 0-2.577-.017-2.898-.375-.411-.461-1.056-1.712-1.056-2.052 0-.137-.225-.695-.5-1.24-.275-.544-.5-1.107-.5-1.25 0-.142-.225-.705-.5-1.25-.275-.544-.5-1.097-.5-1.227 0-.255-.403-.48-.567-.317-.055.055-.099.228-.099.385s-.113.379-.25.493c-.138.114-.25.375-.25.58s-.225.794-.5 1.31c-.275.515-.501 1.069-.501 1.232 0 .162-.225.744-.499 1.294-.275.55-.499 1.145-.5 1.323 0 .177-.163.496-.363.708-.495.528-5.912.612-6.07.094a9 9 0 0 0-.31-.791l-.489-1.109c-.148-.335-.268-.757-.268-.938a.8.8 0 0 0-.25-.537c-.138-.114-.25-.393-.25-.619 0-.227-.124-.649-.275-.938-.651-1.246-.726-1.431-.731-1.802a1.4 1.4 0 0 0-.25-.714c-.134-.178-.244-.462-.244-.63s-.225-.752-.5-1.297-.5-1.096-.5-1.226-.112-.45-.249-.713-.25-.605-.25-.76c-.001-.156-.187-.632-.414-1.058s-.46-1.031-.518-1.344c-.059-.313-.174-.61-.255-.66s-.148-.256-.148-.457c-.001-.201-.225-.815-.5-1.365-.274-.55-.499-1.152-.499-1.338s-.108-.491-.238-.677c-.131-.187-.4-.841-.598-1.453s-.428-1.156-.512-1.207-.153-.28-.153-.507-.121-.598-.269-.825c-.556-.848-.247-.921 3.664-.871l3.514.045zm46.998-.374c.254.185.281.514.24 2.87-.058 3.384.474 3.081-5.427 3.085l-4.549.002.049 1.375.048 1.375 3.987.045c2.599.029 4.063.109 4.208.228.19.158.36 5.197.18 5.345-.023.019-1.917.075-4.208.125l-4.167.09-.048 1.542-.048 1.542h4.681c3.87 0 4.767.044 5.173.254l.492.254v2.608c0 2.192-.044 2.656-.276 2.912-.346.383-16.479.483-16.857.105-.37-.369-.28-23.57.091-23.787.46-.267 16.063-.239 16.431.03m10.162-.001c.257.19.285.963.324 8.875l.042 8.666 4.884.045c6.251.056 5.699-.251 5.699 3.17 0 2.178-.044 2.641-.276 2.897-.346.383-16.979.483-17.357.105-.29-.289-.29-23.477 0-23.767.287-.287 6.294-.28 6.684.009m19.667 0c.257.19.285.963.323 8.875l.042 8.666 4.917.084c3.568.06 5.02.142 5.292.297.492.282.59 5.296.113 5.774-.45.45-17.157.392-17.399-.06-.343-.641-.228-23.463.119-23.665.442-.257 6.24-.232 6.593.029m18.791.328c.27.296.491.627.491.737s.066.224.146.254c.256.097 1.851 2.047 1.853 2.264 0 .115.057.209.126.21s.5.496.958 1.102a54 54 0 0 0 1.345 1.706c.281.334.685.859.898 1.166.214.308.753.976 1.198 1.484.445.509.809.989.809 1.066 0 .151.611.808.75.808.046 0 .084-2.473.084-5.494 0-5.262.013-5.502.322-5.667.344-.184 5.958-.246 6.414-.072.413.159.401 23.305-.012 23.761-.243.268-.562.305-2.656.305h-2.381l-1.052-1.174c-.578-.645-1.083-1.264-1.12-1.375s-.525-.733-1.084-1.383c-1.023-1.192-3.615-4.391-4.484-5.534-.738-.971-1.269-1.534-1.446-1.534-.102 0-.18 2.04-.207 5.458l-.044 5.459-3.15.045c-2.755.04-3.188.011-3.458-.234-.467-.423-.484-23.443-.017-23.715.161-.094 1.395-.172 2.759-.175l2.468-.005zm36.335-.364c.423.226.497 5.025.086 5.587-.223.306-.508.326-5.09.373l-4.853.048.048 1.368.048 1.368 4.084.043c3.601.038 4.108.076 4.291.324.218.293.308 4.596.108 5.119-.089.231-.628.264-4.334.264H331.5v3.167l4.708.002c6.066.003 5.529-.279 5.588 2.939.025 1.398-.028 2.709-.121 2.953l-.167.439h-8.304c-6.236 0-8.354-.05-8.504-.2-.297-.297-.289-23.736.008-23.856.427-.172 16.309-.113 16.636.062m-195.142 7.369.048 1.542 1.917.051c2.75.073 3.358-.195 3.525-1.551.153-1.244-.609-1.584-3.552-1.584h-1.986zm43.168.917.047 2.291 1.843.047c1.82.046 1.851.041 2.541-.459l.699-.506v-1.3c0-1.251-.02-1.319-.55-1.832l-.549-.533h-4.077zm-92.209-.284c-.003.317-.113.763-.244.992a2.3 2.3 0 0 0-.25.917c-.006.275-.121.645-.256.823-.134.178-.244.638-.244 1.021 0 .417-.101.782-.25.906-.16.132-.25.501-.25 1.02V40h3.364l-.119-.868c-.066-.478-.183-.984-.26-1.125s-.252-.782-.387-1.424c-.709-3.355-1.09-4.418-1.104-3.075m49.006 8.159V43.5h5.359l.487-.487c.857-.858.592-2.336-.518-2.88-.459-.225-1.067-.285-2.953-.292l-2.375-.008z"/><path fill="#61e8a4" d="m29.708 17.672-.375.151v5.487c0 4.85-.03 5.499-.263 5.589-.145.055-2.687.101-5.648.101h-5.383l-.101.375c-.131.49-.131 15.26 0 15.75l.101.375h5.383c2.961 0 5.503.046 5.648.101.233.09.263.735.263 5.55 0 4.016.053 5.502.2 5.649.25.25 15.573.286 15.967.037.212-.134.257-.987.298-5.664.027-3.029.064-5.523.083-5.542s2.586-.077 5.702-.125l5.667-.089V29.083l-5.667-.089c-3.116-.048-5.685-.105-5.708-.125-.023-.019-.042-2.441-.042-5.38 0-3.365-.064-5.464-.172-5.667-.19-.354-15.096-.494-15.953-.15M42.7 20.708c.019.023.075 2.554.125 5.625l.092 5.584 5.416.083c2.98.046 5.511.144 5.625.218.38.246.292 9.655-.093 10.004-.265.239-.965.279-5.625.317l-5.323.044-.092 5.584c-.05 3.07-.106 5.602-.125 5.625-.018.023-2.321.041-5.117.041s-5.098-.018-5.117-.041c-.018-.023-.075-2.555-.125-5.625l-.091-5.584-5.402-.044c-3.648-.029-5.475-.104-5.625-.228-.315-.261-.328-9.89-.015-10.093.115-.074 2.646-.172 5.625-.218l5.417-.083.091-5.584c.05-3.071.107-5.602.125-5.625s2.321-.041 5.117-.041 5.099.018 5.117.041"/><path fill="#67aad9" d="M29.241 23.5c0 2.979.023 4.198.05 2.708.028-1.489.028-3.927 0-5.416-.027-1.49-.05-.271-.05 2.708m3.092 3.033c-.046 2.998-.026 5.393.044 5.323s.108-2.523.084-5.45l-.045-5.323zm10.372-.108c-.029 3.976.013 5.393.162 5.542s1.565.19 5.541.161l5.342-.038-5.417-.087-5.416-.086-.087-5.417-.087-5.417zm308.878-1.184c-2.757.471-6.579 2.835-6.584 4.073-.001.148-.116.489-.256.758-1.485 2.849-.394 7.609 1.913 8.341.189.06.344.168.344.239 0 .233 2.247 1.238 2.546 1.138.109-.036-.271-.248-.846-.47-3.819-1.476-5.494-5.358-3.847-8.914.172-.373.314-.794.314-.937 0-.799 3.17-3.18 4.916-3.692 2.422-.711 7.782-.185 9.169.899.093.073.589.29 1.102.482 1.524.57 1.618.77.974 2.079-.296.6-.641 1.177-.766 1.281a.7.7 0 0 0-.229.482.75.75 0 0 1-.25.5c-.137.114-.25.314-.25.444s-.16.452-.355.717c-.407.55-.416.548-2.395-.412-.641-.312-1.391-.612-1.666-.667l-.5-.101.416.254c.23.139.532.256.672.259s.841.306 1.558.673c1.791.916 1.795.915 2.616-.709.383-.756.98-1.9 1.327-2.541.347-.642.638-1.293.646-1.447.014-.273-1.521-1.137-2.021-1.137-.123 0-.371-.102-.552-.227-.712-.493-3.019-1.157-4.291-1.236-.712-.044-1.335-.145-1.385-.225-.114-.185-.849-.155-2.32.096m21.5-.07a8.3 8.3 0 0 1-1.343.153c-.372.005-.822.119-1 .254a1.45 1.45 0 0 1-.731.25c-1.641.021-5.009 3.826-5.009 5.657 0 .272-.076.694-.17.939-.232.611.066 2.886.486 3.709.7 1.373 3.744 3.7 4.838 3.7.078 0 .356.112.619.249.262.137.627.244.81.237q.342-.011.084-.094c-.138-.046-.4-.15-.584-.233-.183-.082-.73-.302-1.216-.488-4.311-1.654-6.018-5.556-4.126-9.436C366.643 28.22 369 26 370.062 26c.158 0 .52-.12.804-.267 1.218-.63 6.561-.242 8.114.59.182.097.446.177.586.177.428 0 2.786 1.188 2.889 1.456.1.262-1.597 3.877-1.821 3.877-.07 0-.175.19-.233.421-.168.669-.646.826-1.37.45a13 13 0 0 0-1.531-.617c-.504-.164-1.012-.374-1.129-.466s-.255-.126-.308-.073c-.124.124 1.133.73 1.819.876.294.062.67.232.835.378.622.55 1.95.217 1.95-.489 0-.172.062-.313.139-.313s.569-.858 1.095-1.906c1.099-2.193 1.089-2.341-.19-2.924a27 27 0 0 1-1.237-.6c-.243-.13-.618-.239-.833-.242a1.4 1.4 0 0 1-.715-.25 1.46 1.46 0 0 0-.758-.245c-.239 0-.509-.074-.6-.165s-.8-.239-1.575-.328a49 49 0 0 1-1.826-.238c-.229-.041-.717-.01-1.084.069m-298.866.146c-.569.055-1.128.193-1.242.308s-.447.208-.738.208-.623.113-.737.25a.8.8 0 0 1-.553.25c-1.493 0-7.011 5.825-6.245 6.591.045.045.321-.403.613-.996.62-1.259 1.632-2.578 2.722-3.547.684-.609 2.694-1.88 2.973-1.881.143 0 .405-.11.583-.245.178-.134.474-.248.657-.252s.633-.116 1-.248c1.436-.517 5.965-.275 7.246.388.323.167.812.359 1.087.426s.664.275.865.462.723.576 1.162.863c.779.511 2.03 2.104 2.048 2.609.005.139-.385.508-.866.821a45 45 0 0 0-2.157 1.539c-1.515 1.147-1.671 1.17-2.204.326-1.714-2.714-7.488-2.464-8.673.375-.157.377-.384.911-.504 1.186a6.65 6.65 0 0 0 .581 6.356c.596.89 1.651 1.963 1.792 1.823.048-.049-.26-.423-.686-.831s-.774-.786-.774-.84-.19-.398-.422-.765c-.555-.88-1.062-3.381-.777-3.837.109-.175.199-.61.199-.967 0-.373.106-.736.25-.856.137-.114.25-.339.25-.5s.112-.386.25-.5c.137-.114.25-.326.25-.471 0-.363 1.147-1.349 1.711-1.471.254-.056.503-.166.552-.246.166-.268 3.338-.175 3.57.105.114.137.339.25.5.25s.386.112.5.25c.114.137.318.25.452.25.274 0 .867.643.876.949.021.76 1.068.726 1.922-.061.183-.169.896-.68 1.583-1.135 2.281-1.509 2.317-1.582 1.441-2.884-.667-.992-1.069-1.427-1.541-1.673-.193-.1-.669-.447-1.058-.772-.388-.325-.876-.591-1.083-.591s-.726-.186-1.154-.413c-.589-.314-1.211-.455-2.566-.583-1.879-.179-2.002-.179-3.655-.02m19.13.578c-.191.308-.347.75-.347.981s-.112.634-.249.897c-.137.262-.249.6-.25.75s-.113.487-.25.75a2.6 2.6 0 0 0-.25 1.005c-.001.29-.078.553-.172.584-.093.032-.218.357-.275.723s-.175.71-.259.766-.195.412-.246.792-.158.69-.238.69-.145.169-.145.375c-.001.207-.113.59-.25.853-.137.262-.25.6-.25.75-.001.15-.113.487-.25.75-.137.262-.249.642-.249.843s-.11.511-.245.689-.247.477-.25.665-.229.975-.502 1.75-.492 1.596-.487 1.825c.006.23.034.342.064.25.14-.427.92-2.961 1.257-4.083.207-.687.478-1.486.603-1.775.124-.289.226-.637.226-.773s.112-.462.249-.725.25-.641.25-.842c.001-.201.076-.412.168-.468s.167-.256.167-.443.1-.577.222-.865c.32-.756.621-1.616.766-2.192.165-.653 1.161-3.869 1.381-4.459l.171-.458h7.131l.33.542c.182.298.331.706.331.906.001.201.076.412.168.469.091.056.167.267.167.468.001.201.109.571.24.822.131.252.291.815.355 1.25s.219.941.344 1.122.227.532.227.782c0 .249.066.494.148.544s.2.373.265.718c.064.345.169.702.234.794.064.091.253.616.42 1.166s.396 1.263.511 1.584c.507 1.421.626 1.78.744 2.254.069.277.204.652.299.833.096.181.228.667.295 1.079.067.413.184.828.261.924.076.095.214.47.305.833.27 1.076.476 1.791.694 2.41l.407 1.167c.112.32.3.845.418 1.166.119.321.223.846.232 1.167l.017.583-3.054.046c-3.322.049-3.674-.051-3.69-1.051-.004-.187-.156-.766-.339-1.288s-.336-1.081-.339-1.244c-.008-.461-.434-.918-.774-.83-.251.065-.256.082-.028.098.187.013.367.33.556.978.153.527.385 1.204.515 1.505s.239.714.242.917.177.577.385.831l.378.463 3.157-.046 3.158-.045.051-.713c.03-.412-.058-.933-.208-1.234-.143-.287-.26-.641-.261-.787s-.113-.481-.25-.744c-.137-.262-.249-.578-.249-.702s-.105-.472-.234-.773c-.383-.897-1.271-3.854-1.268-4.224.001-.189-.108-.489-.243-.666a1.5 1.5 0 0 1-.25-.745 1.6 1.6 0 0 0-.232-.75c-.125-.181-.266-.554-.314-.829-.089-.511-.339-1.255-.736-2.192-.123-.289-.223-.636-.223-.772 0-.137-.112-.463-.249-.725-.137-.263-.249-.642-.25-.843s-.076-.411-.168-.468c-.091-.057-.167-.267-.167-.468-.001-.201-.109-.571-.24-.823-.131-.251-.291-.814-.355-1.25s-.219-.94-.344-1.121-.227-.533-.227-.782-.066-.494-.148-.544-.2-.37-.264-.711c-.221-1.179-.359-1.218-4.35-1.218h-3.544zm17.353-.362c-.264.265-.291 23.152-.027 23.645.161.3.377.322 3.244.322 3.808 0 3.416.648 3.416-5.656 0-2.756.057-5.01.125-5.008a.66.66 0 0 1 .293.125c.225.164 1.814 3.446 2.155 4.449.698 2.057.951 2.257 2.859 2.257.848 0 1.654-.044 1.792-.097.264-.101 2.276-4.039 2.276-4.454 0-.133.113-.335.25-.449.138-.114.251-.33.253-.479.001-.149.11-.459.243-.688.132-.229.337-.604.456-.833.181-.351.222.445.259 4.985.03 3.648.104 5.475.229 5.625.23.278 5.979.323 6.488.05.455-.243.513-23.718.059-23.893-.145-.055-1.748-.101-3.561-.101-3.623 0-3.996.096-4.246 1.091-.059.236-.63 1.486-1.269 2.778-.638 1.291-1.161 2.479-1.161 2.638 0 .16-.112.334-.25.387-.137.053-.25.28-.25.506 0 .381-.938 2.375-1.353 2.875-.185.222-.813-.713-.813-1.21 0-.11-.563-1.308-1.25-2.665s-1.25-2.567-1.25-2.692c0-.294-1.526-3.42-1.747-3.58-.303-.219-6.996-.151-7.22.072m28.568.056c-.399.399-.335 23.495.065 23.748.778.491 15.017.046 15.549-.486.102-.101.367-.184.59-.184 1.486 0 3.693-2.399 4.14-4.5.414-1.949-.96-6-2.036-6-.1 0-.435-.225-.743-.5s-.696-.5-.863-.5c-.457 0-.366-.206.289-.652.324-.221.751-.634.949-.917s.456-.575.575-.648.217-.302.217-.508.07-.447.155-.534.265-.646.4-1.241c.596-2.644-.793-5.631-3.222-6.933-.85-.455-15.621-.589-16.065-.145m23.19-.076c-.338.197-.461 22.686-.129 23.559l.163.428h8.254c10 0 8.921.381 8.921-3.148 0-3.497.537-3.177-5.417-3.228l-4.833-.041-.049-1.402c-.062-1.787-.338-1.675 4.137-1.678 4.838-.004 4.495.208 4.495-2.773 0-3.168.388-2.896-4.131-2.899-4.881-.003-4.536.113-4.536-1.517V31.5h9.35l.42-.453c.517-.558.571-5.231.064-5.551-.351-.221-16.327-.205-16.709.017m20.167 0c-.423.247-.454 23.014-.032 23.617.251.359.349.37 3.224.37 3.822 0 3.496.36 3.554-3.926l.046-3.324.822-.052c1.137-.072 1.579.072 1.771.578.091.239.321.654.513.923.191.268.516.802.722 1.186.863 1.609 1.311 2.38 1.527 2.628.125.145.228.359.228.476s.232.507.517.865l.516.653 3.442-.045 3.442-.045.051-.441c.033-.288-.19-.832-.65-1.583a57 57 0 0 1-1.283-2.226c-.32-.596-.628-1.121-.684-1.167-.055-.046-.24-.346-.411-.667s-.564-1.044-.875-1.608c-.703-1.275-.714-1.159.2-2.112.42-.439 1.104-1.45 1.519-2.247l.754-1.449.023-2.048c.014-1.324-.042-2.09-.16-2.167-.101-.065-.229-.413-.286-.772s-.162-.697-.234-.75-.297-.434-.499-.847c-.762-1.555-2.608-3.029-4.612-3.681-1.125-.366-12.548-.487-13.145-.139m19.387.056c-.158.19-.157.327.004.628.131.245.233.307.278.172.039-.117-.02-.323-.13-.456-.323-.389.006-.424 3.587-.375l3.325.045.153.5c.085.275.255.737.379 1.026.124.288.225.678.225.865s.075.386.167.443.167.256.167.443.107.576.237.865c.131.289.311.862.401 1.275.282 1.296 1.008 3.23 1.02 2.718.004-.201-.067-.411-.158-.468-.092-.057-.167-.267-.168-.468s-.103-.561-.227-.799c-.125-.239-.279-.783-.343-1.209s-.224-.982-.355-1.233-.239-.622-.24-.823c0-.201-.067-.406-.148-.456-.082-.051-.199-.364-.262-.697-.062-.333-.175-.728-.249-.877a6 6 0 0 1-.284-.771l-.149-.5-3.514-.045c-2.913-.037-3.55-.004-3.716.197m9.863-.125c-.272.109-.266.564.013.977.122.181.466 1.079.765 1.996.298.916.611 1.738.695 1.825s.152.312.153.5.113.556.25.819.249.588.249.725c0 .136.1.483.223.772.322.762.621 1.619.766 2.196.069.277.212.666.318.864.27.504.24 1.358-.057 1.656-.138.137-.25.423-.25.636 0 .212-.112.6-.249.863-.137.262-.249.646-.25.852-.001.209-.104.375-.233.375-.26 0-.432-.347-.44-.889a1.4 1.4 0 0 0-.25-.685 1.5 1.5 0 0 1-.25-.75 1.5 1.5 0 0 0-.25-.75 1.5 1.5 0 0 1-.25-.75 1.5 1.5 0 0 0-.25-.75c-.135-.177-.245-.45-.245-.605 0-.156-.112-.498-.249-.76-.137-.263-.249-.417-.25-.342-.002.254.547 1.864.69 2.023.079.087.143.312.144.5 0 .188.113.556.25.819s.249.6.25.75c0 .15.113.487.25.75.137.262.249.651.249.863 0 1.002.84 1.123 1.042.15.074-.358.208-.724.296-.813.089-.088.162-.315.163-.503 0-.188.113-.556.25-.819.317-.609.32-1.615.004-2.032a1.5 1.5 0 0 1-.25-.75 1.5 1.5 0 0 0-.25-.75 1.5 1.5 0 0 1-.25-.75 1.5 1.5 0 0 0-.25-.75 1.5 1.5 0 0 1-.255-.74 1.5 1.5 0 0 0-.256-.741 1.47 1.47 0 0 1-.244-.758c0-.239-.069-.506-.154-.593-.179-.185-.846-2.124-.846-2.462 0-.126-.189-.584-.419-1.017-.58-1.091-.567-1.096 2.554-1.093 3.36.003 3.331-.018 3.79 2.58.065.367.175.742.244.834s.18.429.248.75c.067.321.169.658.227.75s.181.423.274.736c.385 1.306 1.28-.361 2.005-3.736.4-1.857.502-1.911 3.624-1.914 3.306-.004 3.138-.399 1.624 3.83a77 77 0 0 0-.781 2.25c-.052.184-.302.896-.555 1.584-1.362 3.689-1.277 3.355-1.061 4.166q.351 1.312.831 2.464c.125.301.228.653.228.782 0 .908.642.37.922-.772.229-.936.485-1.707.855-2.582.123-.289.223-.678.223-.865s.066-.381.148-.432.199-.364.261-.697c.063-.333.177-.727.254-.877.134-.259.559-1.634 1.167-3.771.156-.55.332-1.112.391-1.25s.363-1.037.676-2l.568-1.75 3.059-.047c4.52-.07 4.287-.389 2.658 3.631a38 38 0 0 0-.509 1.333c-.113.321-.39 1.071-.616 1.667-.226.595-.47 1.308-.541 1.583s-.293.817-.491 1.204c-.198.386-.582 1.388-.854 2.226-.271.837-.564 1.608-.649 1.713s-.426 1.008-.757 2.008c-.33.999-.665 1.899-.744 2-.08.1-.387.895-.684 1.766-.296.871-.718 1.972-.938 2.448-.219.475-.399.965-.399 1.088 0 .974-5.272 1.562-6.03.672-.352-.413-.97-1.671-.97-1.973 0-.14-.225-.708-.5-1.262s-.5-1.131-.5-1.282-.22-.725-.488-1.275c-.269-.55-.529-1.131-.578-1.291-.245-.795-1.601.78-1.601 1.859 0 .105-.225.638-.5 1.182-.275.545-.5 1.104-.5 1.242 0 .207-.432 1.23-1.166 2.758-.098.205-.627.258-2.935.293l-2.815.043-.481-1.293a37 37 0 0 0-.791-1.97c-.171-.373-.312-.785-.312-.917-.001-.131-.225-.689-.5-1.239-.274-.55-.499-1.154-.499-1.343s-.111-.489-.245-.667a1.37 1.37 0 0 1-.25-.681c-.003-.197-.231-.812-.506-1.366s-.502-1.143-.505-1.309-.115-.446-.25-.624-.245-.478-.245-.667c-.001-.189-.225-.793-.5-1.343-.274-.55-.499-1.123-.499-1.273s-.113-.487-.25-.75c-.222-.426-.249-.438-.25-.112 0 .201.066.406.147.457s.196.347.255.66.292.917.518 1.344c.227.426.413.902.414 1.058 0 .155.113.497.25.76s.249.584.249.713c0 .13.225.682.5 1.226.275.545.5 1.129.5 1.297s.11.452.244.63c.135.178.247.499.25.714s.118.609.256.875l.5.968c.137.267.25.67.25.897s.112.505.25.619c.137.114.25.356.25.537s.12.603.268.938l.489 1.109c.122.275.261.631.31.791.158.518 5.575.434 6.07-.094.2-.212.363-.531.363-.708.001-.178.225-.773.5-1.323.274-.55.499-1.132.499-1.294s.226-.717.501-1.232c.275-.516.5-1.105.5-1.31s.112-.466.25-.58c.137-.114.25-.336.25-.493s.044-.33.099-.385c.164-.163.567.062.567.317 0 .13.225.683.5 1.227.275.545.5 1.108.5 1.25 0 .143.225.706.5 1.25.275.545.5 1.103.5 1.24 0 .34.645 1.591 1.056 2.052.321.358.451.375 2.898.375 2.932 0 3.17-.101 3.551-1.518.107-.397.3-.872.428-1.056.129-.183.234-.467.234-.631s.188-.685.417-1.16.417-.981.418-1.125c.002-.143.227-.702.5-1.242.274-.54.499-1.102.499-1.25.001-.147.113-.483.25-.745.137-.263.25-.6.25-.75s.225-.723.499-1.273c.275-.55.499-1.154.5-1.343 0-.189.11-.489.245-.667s.247-.494.25-.701c.003-.208.23-.8.505-1.316.275-.515.503-1.095.506-1.288s.115-.497.25-.675c.134-.178.244-.525.244-.771 0-.247.113-.542.25-.656a.76.76 0 0 0 .25-.51c0-.167.066-.344.145-.393.08-.049.193-.335.251-.635s.211-.77.34-1.045c.128-.275.361-.838.516-1.25s.35-.88.432-1.039c.511-.989.061-1.128-3.659-1.128-3.356 0-3.688.043-3.697.476-.003.151-.115.42-.25.598a1.35 1.35 0 0 0-.244.689c0 .201-.112.581-.249.843-.137.263-.25.61-.25.772a1.6 1.6 0 0 1-.147.583c-.215.425-1.178 3.529-1.302 4.199a4.3 4.3 0 0 1-.329 1c-.122.233-.222.556-.222.718a1.6 1.6 0 0 1-.146.583c-.201.404-.525 1.351-.69 2.018-.077.309-.22.643-.319.742s-.18.354-.18.568-.121.668-.27 1.008l-.271.62-.148-.533c-.082-.294-.223-.58-.313-.635-.091-.056-.164-.306-.164-.555s-.103-.601-.227-.782c-.372-.538-.477-1.762-.197-2.294.134-.256.293-.725.353-1.043s.175-.619.256-.67c.082-.05.148-.218.149-.373s.106-.483.234-.729c.129-.246.288-.693.354-.994.126-.573.178-.706.633-1.614.153-.305.278-.722.278-.926s.11-.517.245-.695c.134-.178.247-.516.25-.75.003-.235.115-.572.25-.75.134-.178.247-.497.25-.71s.088-.54.189-.729c.141-.264.131-.377-.042-.487-.274-.174-5.651-.192-5.909-.02-.34.226-1.128 2.399-1.33 3.668-.062.391-.179.752-.258.801s-.145.264-.145.478-.144.565-.319.782l-.32.393-.113-.5a6.6 6.6 0 0 0-.347-1.025c-.129-.289-.234-.678-.234-.865s-.07-.383-.155-.436c-.086-.052-.207-.507-.27-1.01-.062-.502-.172-.914-.243-.914s-.181-.281-.246-.624c-.064-.344-.204-.68-.31-.748-.213-.135-5.736-.151-6.068-.017m28.083.069c-.371.217-.461 23.418-.091 23.787.378.378 16.511.278 16.857-.105.232-.256.276-.72.276-2.912v-2.608l-.492-.254c-.406-.21-1.303-.254-5.173-.254h-4.681l.048-1.542.048-1.542 4.167-.09c2.291-.05 4.185-.106 4.208-.125.18-.148.01-5.187-.18-5.345-.145-.119-1.609-.199-4.208-.228l-3.987-.045-.048-1.375-.049-1.375 4.549-.002c5.901-.004 5.369.299 5.427-3.085.041-2.356.014-2.685-.24-2.87-.368-.269-15.971-.297-16.431-.03m19.909.02c-.29.29-.29 23.478 0 23.767.378.378 17.011.278 17.357-.105.232-.256.276-.719.276-2.897 0-3.421.552-3.114-5.699-3.17l-4.884-.045-.042-8.666c-.039-7.912-.067-8.685-.324-8.875-.39-.289-6.397-.296-6.684-.009m19.758-.02c-.347.202-.462 23.024-.119 23.665.242.452 16.949.51 17.399.06.477-.478.379-5.492-.113-5.774-.272-.155-1.724-.237-5.292-.297l-4.917-.084-.042-8.666c-.038-7.912-.066-8.685-.323-8.875-.353-.261-6.151-.286-6.593-.029m19.667 0c-.467.272-.45 23.292.017 23.715.27.245.703.274 3.458.234l3.15-.045.023-.584c.018-.436.004-.467-.053-.125l-.076.459h-3.152c-3.131 0-3.153-.003-3.243-.375-.05-.207-.071-5.513-.045-11.792l.046-11.417 2.529-.046 2.529-.046.936 1.213c1.322 1.711 2.722 3.487 3.058 3.879.157.184.47.596.695.917a40 40 0 0 0 1.415 1.797c.552.667 1.267 1.57 1.588 2.006.852 1.159 1.47 1.782 1.619 1.634.072-.072.168-2.656.214-5.742l.083-5.612h6.334l.042 11.565c.032 8.405-.008 11.627-.145 11.792-.143.172-.763.227-2.56.227h-2.372l-.873-.939c-.481-.517-1.005-1.154-1.165-1.417-.159-.262-.57-.78-.913-1.15-.342-.37-1-1.166-1.463-1.77s-.963-1.228-1.113-1.387a14 14 0 0 1-.688-.833 12 12 0 0 0-.679-.815 8 8 0 0 1-.659-.856c-.494-.725-1.519-1.833-1.697-1.833-.252 0-.13.311.16.407.16.054.645.565 1.078 1.137.94 1.241 3.059 3.865 4.599 5.695.613.728 1.152 1.418 1.198 1.534.045.116.557.739 1.135 1.385l1.052 1.175h2.381c2.094 0 2.413-.037 2.656-.305.413-.456.425-23.602.012-23.761-.456-.174-6.07-.112-6.414.072-.309.165-.322.405-.322 5.667 0 3.021-.038 5.494-.084 5.494-.139 0-.75-.657-.75-.808 0-.077-.364-.557-.809-1.066-.445-.508-.984-1.176-1.198-1.484a19 19 0 0 0-.898-1.166 54 54 0 0 1-1.345-1.706c-.458-.606-.889-1.101-.958-1.102s-.126-.095-.126-.21c-.002-.217-1.597-2.167-1.853-2.264-.08-.03-.146-.145-.146-.254s-.221-.441-.491-.737l-.49-.537-2.468.005c-1.364.003-2.598.081-2.759.175m25.416-.069c-.297.12-.305 23.559-.008 23.856.15.15 2.268.2 8.504.2h8.304l.167-.439c.093-.244.146-1.555.121-2.953-.059-3.218.478-2.936-5.588-2.939l-4.708-.002V40h4.232c3.706 0 4.245-.033 4.334-.264.2-.523.11-4.826-.108-5.119-.183-.248-.69-.286-4.291-.324l-4.084-.043-.048-1.368-.048-1.368 4.853-.048c4.582-.047 4.867-.067 5.09-.373.411-.562.337-5.361-.086-5.587-.327-.175-16.209-.234-16.636-.062m-206.958.184c.188.137 1.259 2.311 1.58 3.205.115.321.653 1.496 1.195 2.61a106 106 0 0 1 1.554 3.334c.313.718.667 1.306.786 1.306.258 0 1.606-2.508 1.623-3.021.007-.195.124-.448.262-.562s.25-.307.25-.429c0-.123.563-1.359 1.25-2.749.688-1.389 1.25-2.662 1.25-2.828 0-.851 5.717-1.54 7.403-.893.373.143.406 23.073.034 23.383-.159.131-1.154.176-3.209.145l-2.978-.046-.044-5.402c-.042-5.193-.136-6.168-.55-5.73-.301.319-1.156 2.088-1.156 2.391 0 .184-.112.378-.25.431s-.25.247-.25.431c0 .631-1.846 4.126-2.23 4.223-2.071.519-3.397-.105-4.023-1.895-.572-1.636-2.827-6.027-2.944-5.734-.062.157-.118 2.66-.125 5.563-.006 2.903-.057 5.397-.112 5.542-.153.397-6.146.397-6.298 0-.139-.361-.129-23.153.01-23.292.152-.152 6.764-.136 6.972.017m36.84.131c.582.151 1.191.445 1.469.708.804.76 1.884 2.256 2.008 2.783.466 1.971.464 3.358-.005 4.283-.126.248-.229.572-.229.72 0 .37-1.269 1.847-1.947 2.266-.673.416-.694.602-.094.83 3.912 1.486 4.948 7.285 1.768 9.901-.872.718-1.459 1.023-2.893 1.503-1.177.394-14.641.614-15.084.246-.342-.283-.382-23.251-.041-23.389.588-.237 14.078-.104 15.048.149m24.404.063c.095.178.173 1.308.173 2.511 0 3.13.528 2.834-5.056 2.834-5.449 0-5.111-.111-5.111 1.666 0 1.76-.243 1.667 4.333 1.667 4.741 0 4.334-.25 4.334 2.667 0 2.92.421 2.666-4.433 2.666-4.633 0-4.234-.171-4.234 1.815 0 1.981-.39 1.843 5.333 1.893l4.917.042.046 2.704c.045 2.692.044 2.705-.334 2.797-.208.05-3.979.071-8.379.046l-8-.047-.042-11.656c-.034-9.214.001-11.684.166-11.789.526-.334 16.104-.158 16.287.184m16.329-.056c2.595.629 5.677 3.596 5.677 5.464 0 .204.094.464.208.579.145.145.202.784.188 2.095-.025 2.313-.714 3.97-2.337 5.616l-.923.937.703 1.313c.387.722.784 1.415.884 1.539.234.294.49.743 1.02 1.798.237.472.602 1.109.81 1.417s.433.672.499.809c.065.138.262.475.438.75.697 1.092.719 1.084-3.062 1.084h-3.405l-.366-.514c-.355-.498-.588-.894-1.657-2.82a126 126 0 0 0-.921-1.625 72 72 0 0 1-.8-1.416l-.388-.709-1.222-.049c-1.568-.064-1.497-.233-1.5 3.558-.003 3.917.308 3.575-3.252 3.575-1.995 0-2.91-.06-3.05-.2-.297-.297-.289-23.237.008-23.357.589-.237 11.383-.103 12.448.156m60.973 2.419c.036 2.031-.004 2.642-.181 2.788-.153.127-1.734.203-4.879.233l-4.653.044v3.167l3.933.083c4.873.103 4.484-.136 4.484 2.761 0 2.729.443 2.471-4.417 2.572l-4 .084v3.5l4.917.083c2.704.046 5.01.144 5.125.218.338.219.29 4.843-.054 5.187-.23.231-1.218.262-8.337.262h-8.076l-.162-.428c-.22-.578-.22-22.234 0-22.813l.164-.429 8.045.043 8.045.043zm9.94-2.584c.236.091.264 1.011.264 8.678 0 5.593.06 8.688.173 8.899.164.307.4.322 5.125.325 2.723.001 5.048.063 5.165.137.161.102.201.778.166 2.789l-.046 2.654-8.397.044c-6.063.031-8.461-.01-8.625-.146-.29-.24-.342-22.622-.055-23.159.174-.325 5.469-.513 6.23-.221m19.667 0c.236.091.264 1.011.264 8.678 0 5.593.06 8.688.172 8.899.165.307.4.322 5.135.322 3.824 0 5.031.05 5.26.218.346.252.351 4.932.006 5.275-.121.121-2.839.163-8.583.134l-8.407-.044-.043-11.656c-.034-9.214.001-11.684.167-11.789.243-.154 5.637-.187 6.029-.037m55.167 0c.359.138.397 5.081.041 5.376-.148.123-1.804.199-4.958.229l-4.736.044v3.167l4 .083c2.2.046 4.093.144 4.208.218.343.222.292 4.881-.055 5.014-.145.056-2.06.101-4.256.101h-3.992l.047 1.792.048 1.792 4.902.044c3.278.029 4.977.105 5.125.229.232.192.336 4.654.122 5.213-.133.346-16.355.408-16.699.064-.297-.297-.289-23.237.008-23.357.3-.121 15.88-.13 16.195-.009m-138.717 1.431c-.011.247.049.491.133.543.084.051.314.595.512 1.207.367 1.135.84 2.017.83 1.547-.003-.135-.115-.391-.25-.569s-.245-.486-.245-.684-.18-.698-.4-1.112-.436-.894-.481-1.067c-.057-.224-.085-.186-.099.135M20.958 28.958c1.49.028 3.927.028 5.417 0s.271-.05-2.708-.05-4.198.022-2.709.05m27.844 0c1.496.028 3.896.028 5.333 0s.215-.05-2.718-.05c-2.934 0-4.11.022-2.615.05M203.835 31c0 .137.224.7.498 1.25.275.55.499.887.499.75 0-.138-.224-.7-.499-1.25-.274-.55-.498-.887-.498-.75m-57.829.322c-.185.347-.239 2.645-.072 3.081.192.498 4.635.378 5.319-.144 1.127-.86.796-2.659-.565-3.066-1.155-.346-4.477-.254-4.682.129m43.369.033c-.23.234-.309 4.811-.083 4.812.068 0 .102-1.05.074-2.333l-.05-2.334h4.119l.532.55c.506.521.533.615.533 1.832v1.283l-.692.501c-.787.57-.708.672.122.159.304-.188.587-.469.629-.625.414-1.532.269-2.528-.486-3.353l-.547-.597-1.971-.053c-1.432-.039-2.029.005-2.18.158M352 31.289c-.6.11-.833.355-.833.875 0 .836.663 1.252 3.471 2.18 6.685 2.21 8.297 4.056 7.774 8.906-.593 5.5-7.34 7.727-15.407 5.086-3.53-1.156-3.819-1.4-3.172-2.669.184-.36.334-.798.334-.973 0-.176.112-.413.25-.527.137-.114.25-.339.25-.5s.112-.386.25-.5c.137-.114.25-.339.25-.5s.112-.386.25-.5a.76.76 0 0 0 .25-.51c0-.56.567-.503 1.922.191 1.455.746 2.725 1.227 2.867 1.085.113-.113-.708-.433-1.113-.433a.76.76 0 0 1-.51-.25.75.75 0 0 0-.5-.25c-.161 0-.386-.113-.5-.25-.114-.138-.313-.25-.443-.25-.129 0-.419-.121-.645-.268-.731-.479-1.745.327-1.745 1.387 0 .095-.113.267-.25.381s-.25.339-.25.5-.113.386-.25.5a.76.76 0 0 0-.25.507c0 .164-.187.672-.417 1.129s-.416.94-.416 1.075c0 .222 2.236 1.456 2.637 1.456.087 0 .373.112.635.249.263.137.679.249.926.25.247 0 .491.069.542.152s.487.204.968.268.964.19 1.073.278c.317.256 5.014.369 5.885.141.413-.107 1.088-.26 1.5-.339 1.835-.351 3.953-2.078 4.834-3.942.559-1.183.931-4.707.524-4.959-.105-.065-.191-.283-.191-.486 0-1.604-3.456-4.482-6.05-5.037-.293-.062-.608-.172-.7-.242s-.429-.183-.75-.25-.658-.18-.75-.25-.407-.18-.701-.242c-.965-.207-1.872-.74-1.978-1.164-.233-.93-.119-1.004 1.681-1.094 1.593-.08 1.625-.089.748-.207-.962-.13-1.315-.13-2-.004m21.25-.04c-.092.03-.371.1-.62.155-1.383.304-.418 2.429 1.102 2.429.141 0 .503.104.804.231.301.126.96.36 1.464.519 1.702.535 3.527 1.302 4.224 1.775.381.258.751.471.823.472.684.016 1.901 2.339 2.114 4.037.967 7.711-8.095 11.155-17.528 6.661-1.646-.784-1.631-.69-.481-3.077.54-1.119 1.008-2.182 1.041-2.362.153-.839.829-.878 2.418-.139 2.116.984 4.196 1.607 5.128 1.536.513-.039-.939-.472-1.604-.478-.43-.005-.825-.077-.877-.162-.052-.084-.327-.205-.61-.267s-1.071-.397-1.751-.745c-1.928-.986-3.064-.85-3.064.367 0 .167-.412 1.127-.916 2.132-1.251 2.493-1.266 2.421.72 3.37.9.43 1.968.867 2.375.97l1.738.446c5.731 1.471 11.146-.025 12.948-3.578l.719-1.418v-2.186c-.001-2.615-1.183-5.27-2.347-5.27-.108 0-.294-.119-.415-.264-.284-.342-2.056-1.236-2.45-1.236-.168 0-.376-.069-.463-.154-.218-.211-2.07-.845-2.486-.852-.187-.003-.485-.115-.663-.25a1.4 1.4 0 0 0-.712-.244c-.694 0-1.714-.775-1.714-1.302 0-.754.255-.863 2.075-.886 1.393-.017 1.549-.043.925-.154-.779-.139-1.629-.173-1.917-.076m-222.597.19c.575.115 1.112.88 1.039 1.478-.167 1.356-.775 1.624-3.525 1.551l-1.917-.051-.048-1.542-.048-1.542h1.986c1.092 0 2.223.048 2.513.106m-126.445.686c1.444.027 3.807.027 5.25 0 1.444-.028.263-.051-2.625-.051s-4.068.023-2.625.051M54 37.133l.083 4.95.044-4.822c.025-2.652-.013-4.88-.083-4.95s-.09 2.1-.044 4.822m43.024-3.925c-.093.39-.331 1.271-.528 1.959-.198.687-.431 1.55-.517 1.916a23 23 0 0 1-.259.999c-.089.292-.068.305.173.105.174-.145.274-.481.274-.926 0-.383.11-.843.244-1.021.135-.178.25-.548.256-.823s.119-.688.25-.917.241-.675.244-.992c.014-1.343.395-.28 1.104 3.075.135.642.309 1.282.387 1.424.077.141.194.647.26 1.125l.119.868h-3.364l-.017-.792-.017-.791-.154.659c-.254 1.084-.213 1.107 1.893 1.054l1.878-.047-.028-.416c-.015-.229-.143-.867-.283-1.417a153 153 0 0 1-.942-3.833c-.181-.802-.612-1.917-.741-1.917-.034 0-.139.319-.232.708m-32.586.292c-.25.791-.636 2.918-.634 3.5.002.904.36 3.064.537 3.241.087.087.159.331.159.541 0 .415 1.495 3.403 1.91 3.819.141.141.257.312.257.381 0 .514 4.045 3.685 4.701 3.685.143 0 .475.112.738.249s.631.249.819.25c.188 0 .418.077.512.171.493.493 5.407.17 6.618-.435.26-.129.605-.235.767-.235.682 0 3.118-1.543 4.053-2.566 1.227-1.342 1.401-2.171.583-2.766-.298-.216-.601-.493-.675-.614-.073-.122-.226-.221-.339-.221-.294 0-1.431-.599-1.845-.971-.988-.89-2.027-1.074-2.281-.404-.407 1.069-1.411 1.708-3.318 2.113-1.86.394-1.966.445-.67.322 1.945-.183 3.438-.951 4.003-2.06.187-.367.405-.667.483-.667.305 0 1.305.494 1.516.749.122.147.641.468 1.154.712s1.177.653 1.478.909c.301.255.62.464.708.464.439 0-.004 1.263-.753 2.145-.729.86-3.592 2.688-4.209 2.688-.134 0-.479.105-.768.233-2.249.997-7.997.541-9.369-.744-.19-.177-.422-.322-.517-.322-.405 0-2.458-1.766-3.136-2.698-2.54-3.492-3.537-7.985-2.401-10.831.097-.245.149-.582.114-.75-.052-.25-.087-.23-.195.112m126.193 2.79c.484.034 1.234.033 1.666-.001.433-.034.036-.062-.88-.061-.917 0-1.271.028-.786.062m-44.589 3.48c-.149.065-.209.614-.209 1.907 0 2.193-.274 2.036 3.408 1.96l2.622-.054.401-.466c.774-.901.625-2.321-.317-3.019-.464-.343-5.263-.61-5.905-.328m5.453.363c1.11.544 1.375 2.022.518 2.88l-.487.487h-5.359v-3.667l2.375.008c1.886.007 2.494.067 2.953.292M350 40.083c.114.138.442.247.729.243.52-.007.519-.008-.146-.247-.83-.3-.835-.3-.583.004m1.422.402c.094.097.432.219.75.273.691.117.353-.148-.422-.331-.349-.082-.448-.064-.328.058m20.657.009c.055.088.378.208.719.268 2.13.371 3.689 1.75 2.686 2.376-.433.27-.303.455.149.213.881-.471.563-1.523-.589-1.949-.437-.161-.877-.355-.979-.432-.441-.331-2.149-.741-1.986-.476m-19.173.488c.062.102.232.185.377.185.391 0 1.717.697 1.719.904.002.099.045.336.096.528.075.278-.018.396-.447.574-.298.124-.451.255-.341.291.438.146 1.023-.452 1.023-1.046 0-.531-.067-.606-.875-.98-1.156-.535-1.7-.695-1.552-.456M21.152 42.206c.198.263.72.294 5.658.333l5.44.044.087 5.417.087 5.417.038-5.278c.021-2.903-.008-5.397-.063-5.542-.09-.233-.735-.264-5.55-.264-4.124 0-5.506-.05-5.683-.208-.198-.177-.2-.165-.014.081m24.65.252c1.496.028 3.896.028 5.333 0s.215-.05-2.718-.05c-2.934 0-4.11.022-2.615.05m-3.06.252c-.044.115-.06 2.572-.036 5.458l.044 5.249.084-5.459c.045-3.002.062-5.458.036-5.458s-.083.094-.128.21m45.127.462a1.5 1.5 0 0 0-.195.701c.005.267.076.185.242-.283.266-.747.25-.894-.047-.418M74 43.149c.569.317 1.241.391 1.009.111-.119-.143-.451-.258-.738-.255-.369.004-.448.046-.271.144m277.003.007c.231.071.794.175 1.25.232l.83.104-.583-.234a4 4 0 0 0-1.25-.231c-.564.001-.602.021-.247.129M87.369 44.672a1.6 1.6 0 0 0-.208.701 1.4 1.4 0 0 1-.25.701 1.43 1.43 0 0 0-.244.736c0 .228-.107.532-.236.677-.13.145-.259.638-.287 1.096l-.05.834 3.263.045c2.811.039 3.293.008 3.482-.219.268-.322.814-1.868.823-2.326.004-.184.119-.548.256-.811.233-.447.355-1.268.16-1.073-.049.049-.303.838-.565 1.754-.75 2.626-.334 2.38-4.019 2.38-3.728 0-3.463.283-2.487-2.669.667-2.017.754-2.454.362-1.826m-66.411.953c1.49.027 3.927.027 5.417 0 1.49-.028.271-.051-2.708-.051s-4.198.023-2.709.051m27.844 0c1.496.027 3.896.027 5.333 0 1.438-.028.215-.051-2.718-.051-2.934 0-4.11.023-2.615.051M29.241 51c0 2.979.023 4.198.05 2.708.028-1.489.028-3.927 0-5.416-.027-1.49-.05-.271-.05 2.708"/><path fill="#86bce4" d="M351.417 25.504c-2.458.366-6.25 2.782-6.25 3.981 0 .134-.142.548-.314.921-.814 1.758-.73 4.232.206 6.057.804 1.567 2.939 2.804 7.108 4.12 2.517.794 3.166 1.167 3.166 1.818 0 .636-.267.919-1.042 1.103l-.541.129.596.017c.846.024 1.346-.531 1.214-1.346-.113-.695-.901-1.176-2.977-1.816-2.445-.755-3.044-.98-4.418-1.665-2.762-1.376-3.555-2.644-3.537-5.656.011-1.73.054-1.995.442-2.717.236-.441.43-.893.43-1.005 0-.625 3.338-3.278 4.125-3.278.133 0 .478-.106.766-.235.699-.312 2.762-.436 4.199-.253 1.862.238 2.953.464 3.138.649a.74.74 0 0 0 .455.172c.155 0 .736.225 1.291.5s1.075.5 1.158.5.325.151.538.336l.388.337-.48 1.005c-.264.553-.578 1.086-.696 1.184s-.215.322-.215.497-.113.361-.25.414c-.138.053-.25.238-.25.411 0 .331-.466.888-.849 1.016-.124.041-.877-.25-1.675-.646-.797-.396-1.662-.717-1.921-.712-.365.007-.264.077.445.309.504.165 1.265.488 1.691.719 1.605.868 2.475.718 2.475-.426 0-.13.113-.33.25-.444a.75.75 0 0 0 .25-.5c0-.161.103-.378.229-.482.125-.104.47-.681.766-1.281.644-1.309.55-1.509-.974-2.079-.513-.192-1.009-.409-1.102-.482-1.077-.842-5.553-1.511-7.835-1.172m20.833-.022c-.642.058-1.33.199-1.531.312s-.495.206-.655.206c-1.064 0-3.42 2.218-4.323 4.068-1.925 3.948-.124 7.896 4.342 9.52.459.166.909.352 1 .413.092.061.692.245 1.334.409.641.164 1.316.387 1.5.495.183.109.695.333 1.137.498 1.309.489 1.453 1.718.244 2.082l-.548.166.575-.034c1.428-.084 1.279-2.398-.158-2.452-.138-.005-.55-.155-.917-.332s-.793-.324-.948-.327c-.156-.003-.329-.081-.385-.173-.057-.091-.305-.167-.552-.167a2.3 2.3 0 0 1-.865-.215 15 15 0 0 0-1.25-.522c-3.929-1.45-5.378-3.754-4.78-7.596.655-4.207 4.593-6.687 9.77-6.152 1.3.135 2.704.424 3.099.638.14.076.513.195.828.264s.687.183.828.253.682.323 1.204.563.993.507 1.047.594c.123.199-1.537 3.543-1.849 3.724-.127.073-.23.317-.23.541 0 .543-.497.541-1.635-.008-.475-.229-1-.417-1.166-.417s-.448-.11-.626-.244c-.178-.135-.473-.247-.657-.249-.454-.006.226.348 1.44.75.491.162 1.17.439 1.508.614.724.376 1.202.219 1.37-.45.058-.231.163-.421.233-.421.224 0 1.921-3.615 1.821-3.877-.103-.268-2.461-1.456-2.889-1.456-.14 0-.404-.08-.586-.177-1.187-.636-4.472-1.046-6.73-.841m-299 .273c-.367.132-.817.243-1 .248-.183.004-.479.118-.657.252-.178.135-.44.245-.583.245-.279.001-2.289 1.272-2.973 1.881-1.527 1.358-3.054 3.69-3.406 5.202-.908 3.903-.745 5.682.808 8.853 1.204 2.459 3.651 5.231 4.617 5.231.095 0 .327.145.517.322 1.372 1.285 7.12 1.741 9.369.744.289-.128.634-.233.768-.233.617 0 3.48-1.828 4.209-2.688.749-.882 1.192-2.145.753-2.145-.088 0-.407-.208-.708-.463-.301-.254-.922-.64-1.381-.856-.458-.217-1.02-.559-1.25-.761-.726-.64-1.524-.877-1.737-.516-.604 1.021-.944 1.365-1.774 1.798-.511.266-1.298.545-1.75.621l-.822.137.718.02c1.25.034 3.164-1.095 3.542-2.09.201-.529.968-.452 1.651.164.232.21.836.577 1.343.817.506.239 1.061.591 1.234.782.172.191.417.347.543.347.392 0 .442.491.115 1.119-.297.572-1.299 1.714-1.503 1.714-.052 0-.368.21-.702.466-.749.575-2.292 1.367-2.665 1.368-.152.001-.491.113-.753.25-.263.137-.671.249-.907.249s-.852.088-1.37.195c-1.144.236-4.319-.036-5.086-.435-.271-.142-.649-.258-.839-.259-.191 0-.522-.188-.738-.417s-.476-.417-.579-.417-.65-.337-1.215-.748c-.867-.631-1.328-1.122-2.502-2.669-.341-.449-1.704-3.308-1.704-3.574 0-.167-.112-.519-.249-.782-.348-.668-.349-4.169-.001-5.003.138-.329.25-.76.25-.957 0-.909 1.919-3.959 3.183-5.059.761-.662 2.795-2.041 3.011-2.041.095 0 .409-.105.698-.232 2.231-.985 7.268-1.008 8.819-.041.205.128.566.278.801.332s.776.363 1.199.686.834.588.913.588c.241 0 1.14 1.037 1.611 1.858l.444.775-1.131.752c-.622.414-1.318.908-1.548 1.097l-.583.482c-.72.589-1.274.784-1.431.503-.313-.558-1.019-1.3-1.237-1.3-.121 0-.246-.057-.276-.125-.084-.188-1.295-.775-1.394-.677-.047.047.407.328 1.008.624.792.39 1.207.718 1.505 1.191.539.854.693.832 2.21-.317a45 45 0 0 1 2.157-1.539c.481-.313.871-.682.866-.821-.018-.505-1.269-2.098-2.048-2.609-.439-.287-.962-.676-1.162-.863a2.3 2.3 0 0 0-.865-.462 6 6 0 0 1-1.087-.426c-1.281-.663-5.81-.905-7.246-.388m20.276.203c-.358.907-.435 1.512-.142 1.118.14-.188.279-.563.31-.834l.056-.492 3.5-.043 3.5-.043.292.515c.16.283.291.654.291.825s.225.982.5 1.803.503 1.631.506 1.801.115.454.25.632c.134.178.244.488.244.689 0 .202.112.581.249.844.137.262.25.641.25.842.001.201.07.408.153.459.084.052.203.394.265.759.062.366.172.702.246.748.073.045.184.355.247.688.062.333.176.727.252.877.077.149.229.608.339 1.021s.278.937.373 1.166c.095.23.267.829.383 1.334.22.954.461 1.701.848 2.63.126.301.229.655.229.786 0 .132.102.485.228.786.289.694.595 1.572.772 2.214.075.275.236.747.358 1.049.323.805.119.863-3.047.865-3.155.003-3.142.009-3.393-1.501-.069-.41-.228-.949-.355-1.196-.126-.248-.23-.63-.23-.849 0-.881-.334-.963-3.736-.913l-3.119.045-.225.417c-.289.534-.92 2.519-.92 2.893 0 .157-.121.47-.269.696l-.269.411h-6.001l.107-.375c.236-.83.294-1.386.116-1.109-.095.146-.222.578-.283.958l-.11.693h3.182c3.689 0 3.298.211 3.965-2.142.225-.793.49-1.648.589-1.9l.18-.458h3.087c3.291 0 3.519.056 3.534.879.003.163.155.722.339 1.244.183.522.335 1.101.339 1.288.016 1 .368 1.1 3.69 1.051l3.054-.046-.017-.583a4.4 4.4 0 0 0-.232-1.167 96 96 0 0 1-.418-1.166L107.176 45c-.218-.619-.424-1.334-.694-2.41-.091-.363-.229-.738-.305-.833-.077-.096-.194-.511-.261-.924-.067-.412-.199-.898-.295-1.079a4.6 4.6 0 0 1-.299-.833c-.118-.474-.237-.833-.744-2.254a42 42 0 0 1-.511-1.584c-.167-.55-.356-1.075-.42-1.166-.065-.092-.17-.449-.234-.794-.065-.345-.184-.668-.265-.718s-.148-.295-.148-.544-.102-.601-.227-.782-.28-.686-.344-1.122c-.064-.435-.224-.998-.355-1.25-.131-.251-.239-.621-.24-.822 0-.201-.076-.412-.167-.468s-.167-.268-.168-.469c0-.2-.149-.608-.331-.906l-.33-.542h-7.131zm17.252-.347c-.139.139-.149 22.931-.01 23.292.152.397 6.145.397 6.298 0 .055-.145.106-2.639.112-5.542s.063-5.406.125-5.563c.117-.293 2.372 4.098 2.944 5.734.626 1.79 1.952 2.414 4.023 1.895.384-.097 2.23-3.592 2.23-4.223 0-.184.112-.378.25-.431s.25-.247.25-.431c0-.303.855-2.072 1.156-2.391.414-.438.508.537.55 5.73l.044 5.402 2.978.046c2.055.031 3.05-.014 3.209-.145.372-.31.339-23.24-.034-23.383-1.686-.647-7.403.042-7.403.893 0 .166-.562 1.439-1.25 2.828-.687 1.39-1.25 2.626-1.25 2.749 0 .122-.112.315-.25.429s-.255.367-.262.562c-.017.513-1.365 3.021-1.623 3.021-.119 0-.473-.588-.786-1.306a106 106 0 0 0-1.554-3.334c-.542-1.114-1.08-2.289-1.195-2.61-.321-.894-1.392-3.068-1.58-3.205-.208-.153-6.82-.169-6.972-.017m28.764-.001c-.341.138-.301 23.106.041 23.389.443.368 13.907.148 15.084-.246 1.434-.48 2.021-.785 2.893-1.503 3.18-2.616 2.144-8.415-1.768-9.901-.6-.228-.579-.414.094-.83.678-.419 1.947-1.896 1.947-2.266 0-.148.103-.472.229-.72.469-.925.471-2.312.005-4.283-.065-.275-.436-.913-.825-1.417-1.827-2.368-1.684-2.337-10.569-2.32-3.808.007-7.017.051-7.131.097m23.165.028c-.165.105-.2 2.575-.166 11.789l.042 11.656 8 .047c4.4.025 8.171.004 8.379-.046.378-.092.379-.105.334-2.797l-.046-2.704-4.917-.042c-5.723-.05-5.333.088-5.333-1.893 0-1.986-.399-1.815 4.234-1.815 4.854 0 4.433.254 4.433-2.666 0-2.917.407-2.667-4.334-2.667-4.576 0-4.333.093-4.333-1.667 0-1.777-.338-1.666 5.111-1.666 5.584 0 5.056.296 5.056-2.834 0-3.189 1.04-2.833-8.298-2.83-4.374.001-8.047.062-8.162.135m20.168-.028c-.297.12-.305 23.06-.008 23.357.14.14 1.055.2 3.05.2 3.56 0 3.249.342 3.252-3.575.003-3.791-.068-3.622 1.5-3.558l1.222.049.388.709c.213.389.573 1.027.8 1.416.226.39.641 1.121.921 1.625 1.069 1.926 1.302 2.322 1.657 2.82l.366.514h3.405c3.781 0 3.759.008 3.062-1.084a9 9 0 0 1-.438-.75 9 9 0 0 0-.499-.809 16 16 0 0 1-.81-1.417c-.53-1.055-.786-1.504-1.02-1.798-.1-.124-.497-.817-.884-1.539l-.703-1.313.923-.937c1.623-1.646 2.312-3.303 2.337-5.616.014-1.311-.043-1.95-.188-2.095-.114-.115-.208-.375-.208-.579 0-1.868-3.082-4.835-5.677-5.464-1.065-.259-11.859-.393-12.448-.156m19.241-.004c-.062.063-.047.195.034.295s.19.332.242.516c.052.183.073.089.047-.209l-.048-.541h3.188c3.293 0 3.588.057 3.588.694 0 .162.103.541.229.842.377.899 1.271 3.872 1.271 4.227 0 .181.102.477.227.658s.266.554.314.829.182.762.298 1.083.285.792.375 1.047.197.431.237.39c.073-.072-.607-2.3-1.048-3.437a8 8 0 0 1-.338-1.234c-.062-.359-.214-.846-.338-1.084s-.226-.596-.226-.797c-.001-.201-.076-.412-.168-.468s-.167-.256-.167-.443-.101-.577-.225-.865a13 13 0 0 1-.379-1.026l-.153-.5-3.424-.045c-1.883-.024-3.474.006-3.536.068m9.808.048c-.052.085.094.508.324.942s.419.891.419 1.017c0 .338.667 2.277.846 2.462.085.087.154.354.154.593s.11.581.244.758c.135.178.25.512.256.741.005.229.12.562.255.74s.247.515.25.75.115.572.25.75.247.515.25.75.115.572.25.75c.316.417.313 1.423-.004 2.032-.137.263-.25.631-.25.819-.001.188-.074.415-.163.503-.088.089-.222.455-.296.813-.202.973-1.042.852-1.042-.15 0-.212-.112-.601-.249-.863-.137-.263-.25-.6-.25-.75-.001-.15-.113-.488-.25-.75-.223-.427-.249-.439-.25-.113-.001.201.063.405.142.454s.235.522.349 1.051c.587 2.744 1.177 2.83 2.045.297.765-2.231.68-4.233-.217-5.158-.085-.087-.154-.354-.154-.593 0-.24-.11-.581-.244-.759a1.5 1.5 0 0 1-.256-.74 1.5 1.5 0 0 0-.255-.74 1.5 1.5 0 0 1-.25-.75 1.5 1.5 0 0 0-.25-.75 1.5 1.5 0 0 1-.25-.75 1.5 1.5 0 0 0-.25-.75 1.4 1.4 0 0 1-.245-.714c0-.215-.104-.557-.232-.76a3.7 3.7 0 0 1-.345-.744l-.112-.375h2.721c3.084 0 3.01-.032 3.224 1.394.064.427.182.817.264.868.081.05.147.271.147.492s.103.647.228.948c.374.897.638 1.686.726 2.167.142.783 1.046 1.102 1.046.369 0-.149.105-.508.233-.796.218-.49.307-.794.781-2.651.1-.389.244-.858.321-1.041.076-.184.188-.558.249-.833.197-.899.257-.917 3.02-.917 2.212 0 2.563.035 2.563.26 0 .388-.518 1.898-.687 2.002-.081.05-.147.34-.147.644s-.112.646-.25.76c-.137.114-.25.452-.25.75 0 .299-.112.636-.25.75-.137.114-.25.452-.25.75 0 .299-.112.636-.25.75-.137.114-.25.371-.25.571s-.064.434-.143.521-.32.721-.537 1.408c-.217.688-.463 1.299-.547 1.358-.083.059-.109.284-.057.5a22.4 22.4 0 0 0 1.056 3.273c.126.301.228.697.228.88s.116.377.257.431c.374.144.91-.42.91-.958 0-.255.075-.51.167-.567.091-.057.167-.267.167-.468.001-.201.106-.567.235-.812.128-.246.287-.694.353-.995s.18-.662.253-.803c.181-.349 1.325-4.062 1.325-4.301 0-.106.105-.439.234-.74.128-.301.477-1.335.775-2.298.298-.962.586-1.825.641-1.916.055-.092.175-.505.268-.917l.167-.75 3.208-.045 3.207-.046v.379c.001.336-.381 1.408-1.1 3.093-.128.301-.233.651-.233.778 0 .126-.181.593-.402 1.036a10 10 0 0 0-.588 1.506c-.102.386-.259.747-.348.802s-.162.284-.162.51c0 .225-.225.832-.5 1.347s-.5 1.1-.5 1.298c0 .199-.11.507-.245.685a1.4 1.4 0 0 0-.25.702c-.003.208-.23.8-.505 1.315s-.503 1.095-.506 1.288-.115.498-.25.676c-.134.177-.245.477-.245.666s-.225.793-.499 1.343c-.275.55-.502 1.15-.505 1.334-.003.183-.116.479-.251.657-.134.177-.244.485-.244.683s-.188.713-.417 1.144-.417.929-.417 1.108c0 .838-.483.991-3.126.991h-2.459l-.541-1c-.297-.549-.54-1.116-.54-1.259s-.225-.713-.5-1.267c-.275-.555-.5-1.115-.5-1.245s-.216-.703-.48-1.274a42 42 0 0 1-.663-1.497c-.323-.807-.718-.571-1.401.835-.345.71-.626 1.411-.625 1.559s-.223.689-.498 1.205c-.275.515-.5 1.061-.5 1.214s-.267.832-.593 1.511l-.594 1.233-2.74-.049c-1.507-.027-2.74.009-2.74.08.001.266 5.704.059 5.834-.213.734-1.528 1.166-2.551 1.166-2.758 0-.138.225-.697.5-1.242.275-.544.5-1.077.5-1.182 0-1.079 1.356-2.654 1.601-1.859.049.16.309.741.578 1.291s.488 1.124.488 1.275.225.728.5 1.282.5 1.122.5 1.262c0 .302.618 1.56.97 1.973.758.89 6.03.302 6.03-.672 0-.123.18-.613.399-1.088s.642-1.577.938-2.448c.297-.871.604-1.666.684-1.766.079-.101.414-1.001.744-2 .331-1 .671-1.903.757-2.008s.378-.876.649-1.713c.272-.838.656-1.84.854-2.226.198-.387.419-.929.491-1.204.071-.275.315-.988.541-1.583.226-.596.503-1.346.616-1.667s.342-.921.509-1.333c1.629-4.02 1.862-3.701-2.658-3.631l-3.059.047-.568 1.75c-.313.963-.617 1.863-.676 2-.059.138-.235.7-.391 1.25-.608 2.137-1.033 3.512-1.167 3.771-.077.15-.191.544-.254.877-.062.333-.18.647-.261.697-.082.051-.148.245-.148.432s-.1.576-.223.865c-.37.875-.626 1.646-.855 2.582-.28 1.142-.922 1.68-.922.772 0-.129-.103-.481-.228-.782a19.5 19.5 0 0 1-.831-2.464c-.216-.811-.301-.477 1.061-4.166.253-.688.503-1.4.555-1.584.052-.183.403-1.196.781-2.25 1.514-4.229 1.682-3.834-1.624-3.83-3.122.003-3.224.057-3.624 1.914-.725 3.375-1.62 5.042-2.005 3.736-.093-.313-.216-.645-.274-.736-.058-.092-.16-.429-.227-.75-.068-.321-.179-.659-.248-.75-.069-.092-.179-.467-.244-.834-.174-.983-.624-2.315-.829-2.455-.263-.18-5.727-.155-5.839.026m28.072.272c-.22.579-.22 22.235 0 22.813l.162.428h8.076c7.119 0 8.107-.031 8.337-.262.344-.344.392-4.968.054-5.187-.115-.074-2.421-.172-5.125-.218l-4.917-.083v-3.5l4-.084c4.86-.101 4.417.157 4.417-2.572 0-2.897.389-2.658-4.484-2.761l-3.933-.083V31.25l4.653-.044c3.145-.03 4.726-.106 4.879-.233.177-.146.217-.757.181-2.788l-.046-2.602-8.045-.043-8.045-.043zm20.01-.104c-.287.537-.235 22.919.055 23.159.164.136 2.562.177 8.625.146l8.397-.044.046-2.654c.035-2.011-.005-2.687-.166-2.789-.117-.074-2.442-.136-5.165-.137-4.725-.003-4.961-.018-5.125-.325-.113-.211-.173-3.306-.173-8.899 0-7.667-.028-8.587-.264-8.678-.761-.292-6.056-.104-6.23.221m19.868-.184c-.166.105-.201 2.575-.167 11.789l.043 11.656 8.407.044c5.744.029 8.462-.013 8.583-.134.345-.343.34-5.023-.006-5.275-.229-.168-1.436-.218-5.26-.218-4.735 0-4.97-.015-5.135-.322-.112-.211-.172-3.306-.172-8.899 0-7.667-.028-8.587-.264-8.678-.392-.15-5.786-.117-6.029.037m19.57-.027c-.138.139-.148 22.931-.01 23.292.163.423 6.405.396 6.386-.028-.008-.174-.047-.208-.097-.083-.063.155-.821.208-2.991.208h-2.907l-.162-.428c-.177-.464-.232-21.882-.058-22.53.098-.366.156-.375 2.413-.375h2.313l.46.631c.478.657.761 1.007 1.247 1.543.158.175.496.604.75.953s.557.745.674.879c.804.927 1.118 1.322 1.51 1.903.245.362.632.855.861 1.096.516.54 2.019 2.433 2.266 2.854.386.655 1.727 1.998 1.893 1.895.116-.071.175-1.978.175-5.667 0-3.058.045-5.679.101-5.824.188-.49 5.827-.384 5.96.112.183.683.119 22.288-.067 22.636-.158.294-.369.322-2.449.322h-2.276l-.641-.687a15 15 0 0 1-1.143-1.417 13 13 0 0 0-.928-1.188c-.561-.604-4.182-5.048-4.757-5.839-2.141-2.946-2.142-2.944-2.094 3.349l.039 5.199.046-5.125c.026-2.819.105-5.125.177-5.125.175 0 1.203 1.112 1.694 1.833.218.321.515.706.659.856.144.149.45.516.679.815s.539.674.688.833c.15.159.65.783 1.113 1.387a31 31 0 0 0 1.463 1.77c.343.37.754.888.913 1.15.16.263.684.9 1.165 1.417l.873.939h2.372c1.797 0 2.417-.055 2.56-.227.137-.165.177-3.387.145-11.792l-.042-11.565h-6.334L314 31.195c-.046 3.086-.142 5.67-.214 5.742-.149.148-.767-.475-1.619-1.634a57 57 0 0 0-1.588-2.006 40 40 0 0 1-1.415-1.797 15 15 0 0 0-.695-.917c-.336-.391-1.734-2.165-3.054-3.875l-.934-1.208h-2.463c-1.354 0-2.512.05-2.574.111m25.431-.001c-.297.12-.305 23.06-.008 23.357.344.344 16.566.282 16.699-.064.214-.559.11-5.021-.122-5.213-.148-.124-1.847-.2-5.125-.229l-4.902-.044-.048-1.792-.047-1.792h3.992c2.196 0 4.111-.045 4.256-.101.347-.133.398-4.792.055-5.014-.115-.074-2.008-.172-4.208-.218l-4-.083V31.25l4.736-.044c3.154-.03 4.81-.106 4.958-.229.356-.295.318-5.238-.041-5.376-.315-.121-15.895-.112-16.195.009m-207.182.348c.283.337 1.64 3.259 1.64 3.531 0 .1.477 1.138 1.06 2.305a91 91 0 0 1 1.53 3.206c.622 1.432.705 1.532 1.092 1.325.319-.171 1.818-3.118 1.818-3.574 0-.138.072-.251.161-.251.088 0 .237-.281.331-.625s.697-1.666 1.34-2.938 1.168-2.392 1.168-2.487c0-.692.441-.783 3.777-.783h3.226l-.043 11.625-.043 11.625-2.749.046c-3.531.059-3.168.766-3.168-6.162 0-3.645-.059-5.634-.166-5.634-.453 0-1.834 2.242-1.834 2.977 0 .176-.112.364-.25.416-.137.053-.253.267-.256.476-.004.21-.435 1.206-.959 2.214l-.951 1.833h-3.167L120.717 44c-.293-.596-.537-1.168-.542-1.272-.027-.583-2.796-5.874-2.978-5.692-.144.144-.197 1.758-.197 5.99v5.792l-.542.099c-.298.054-1.666.076-3.041.049l-2.5-.049-.043-11.417c-.024-6.279-.008-11.51.036-11.625.141-.369 6.469-.291 6.783.083m36.883.011c1.159.281 3.257 2.492 3.257 3.433 0 .2.073.437.161.525 1.018 1.018-.492 5.218-2.336 6.496-.878.608-.637.926 1.425 1.884.763.354 1.825 2.355 2.079 3.917.377 2.317-1.012 4.87-3.162 5.812-1.899.832-2.35.873-9.497.877l-6.753.004-.043-11.629-.043-11.628 7.043.054c4.727.037 7.315.121 7.869.255m24.257 2.274v2.576l-4.732.049c-5.704.059-5.434-.04-5.434 1.991 0 2.049-.178 1.974 4.666 1.974h4v4.834h-4.069c-5.026 0-4.597-.164-4.597 1.749 0 2.41-.4 2.244 5.5 2.293l4.916.041.046 2.537c.056 3.096 1.204 2.734-8.462 2.676l-7.75-.046-.043-11.625-.043-11.625h16.002zm16.217-2.312c2.499.552 5.783 3.498 5.783 5.188 0 .129.12.602.267 1.05.657 2.01-.394 5.454-2.225 7.293-.995.999-1.038 1.18-.458 1.94.229.3.416.604.416.675 0 .137 1.162 2.114 1.326 2.256.052.046.296.5.54 1.009s.713 1.322 1.04 1.808.594.984.594 1.107.083.275.185.337c.463.287-.47.401-3.284.403-3.61.004-3.041.351-4.901-2.997-1.066-1.92-1.301-2.32-1.645-2.804-.195-.273-.355-.58-.355-.68 0-.821-2.757-1.281-3.16-.527-.103.191-.173 1.653-.173 3.58 0 3.864.393 3.464-3.333 3.395l-2.584-.047-.042-11.625-.043-11.625h5.426c4.344 0 5.666.053 6.626.264m61.037.111c.051.206.071 1.35.044 2.541l-.048 2.167-4.683.083c-5.587.1-5.233-.035-5.233 1.995 0 2.097-.237 1.989 4.509 2.044l3.907.045.047 2.237c.058 2.754.472 2.507-4.222 2.51-4.546.003-4.241-.142-4.241 2.016 0 2.137-.431 1.974 5.347 2.026l4.903.044.046 2.434c.036 1.918-.004 2.475-.186 2.627-.17.141-2.351.181-8.129.149l-7.898-.043-.043-11.417c-.024-6.279-.007-11.51.036-11.625.062-.163 1.801-.208 7.915-.208h7.836zm10.08 8.273c0 7.991.022 8.675.291 9 .284.343.429.354 5.375.394l5.084.041v5.167l-8 .046c-4.4.025-8.169.005-8.375-.045l-.375-.091V37.51c0-6.224.045-11.435.101-11.58.087-.226.51-.263 3-.263h2.899zm19.666 0c0 7.991.022 8.675.292 9 .284.343.428.354 5.375.394l5.083.041.046 2.434c.037 1.918-.003 2.475-.185 2.627-.17.141-2.393.181-8.296.149l-8.065-.043-.042-11.625-.043-11.625h5.835zM341 28.25v2.583h-9.462l-.269.411c-.349.532-.385 3.119-.047 3.399.145.121 1.631.2 4.291.229l4.07.045.047 2.291c.025 1.261.025 2.306 0 2.324s-1.959.073-4.297.125l-4.25.093-.047 1.82c-.06 2.287-.542 2.091 5.159 2.094 2.628.002 4.896.048 5.041.104.445.17.388 4.821-.061 5.061-.217.116-2.964.16-8.209.131l-7.883-.043-.042-11.625-.043-11.625H341zm-138.497-1.3c-.002.109.185.552.414.983s.416.945.416 1.143.11.506.245.684.247.473.251.657c.003.183.23.783.504 1.333.275.55.5 1.112.501 1.25s.113.465.25.727c.137.263.25.6.25.75s.225.723.499 1.273c.275.55.499 1.154.5 1.343 0 .189.11.489.245.667s.247.459.25.624c.003.166.23.755.505 1.309s.503 1.169.506 1.366.115.503.25.681c.134.178.245.478.245.667s.225.793.499 1.343c.275.55.499 1.108.5 1.239 0 .132.14.544.31.917.17.372.488 1.151.708 1.731.219.579.423.937.452.795s-.064-.427-.208-.633c-.144-.205-.262-.507-.262-.67s-.182-.675-.405-1.137c-.222-.461-.453-1.061-.513-1.332-.059-.272-.29-.835-.512-1.252-.221-.418-.403-.886-.404-1.042-.001-.155-.113-.497-.25-.76s-.249-.589-.249-.725-.11-.484-.245-.772c-.593-1.275-1.254-3.055-1.254-3.38-.001-.195-.114-.448-.251-.562-.138-.114-.252-.33-.255-.479s-.116-.417-.25-.595a1.5 1.5 0 0 1-.25-.75 1.5 1.5 0 0 0-.25-.75c-.135-.178-.245-.453-.245-.611s-.199-.683-.441-1.167c-.243-.483-.499-1.108-.569-1.388-.291-1.165-1.481-3.948-1.487-3.477M92.679 28.667a44 44 0 0 0-.524 1.75c-.145.576-.446 1.436-.766 2.192-.122.288-.222.678-.222.865s-.075.386-.167.443-.167.267-.168.468c0 .201-.113.58-.25.842-.137.263-.249.589-.249.725s-.102.484-.226.773-.393 1.088-.597 1.775c-.203.688-.469 1.55-.591 1.917a294 294 0 0 0-1.507 4.896c-.078.269-.056.359.07.281.102-.062.185-.226.185-.363s.262-1.034.583-1.992c.321-.959.583-1.847.583-1.972 0-.126.112-.444.249-.706.137-.263.25-.642.25-.843.001-.201.076-.411.168-.468s.167-.267.168-.468c0-.201.113-.58.25-.843.137-.262.249-.6.25-.75 0-.15.113-.487.25-.75.137-.262.249-.6.25-.75 0-.15.113-.487.25-.75.137-.262.249-.576.249-.697s.337-1.23.75-2.465c.412-1.235.75-2.334.75-2.444s.119-.45.264-.756.237-.693.204-.859c-.032-.166-.238.261-.456.949m-17.171 2.318c-.133.088-.583.208-1 .267-.784.111-2.409 1.188-2.7 1.79-.078.16-.217.423-.309.583s-.213.404-.268.542c-.055.137-.214.505-.352.817-1.391 3.129 1.291 8.776 4.115 8.666.336-.013.282-.061-.266-.234-3.269-1.031-4.962-5.255-3.474-8.666.12-.275.347-.809.504-1.186.648-1.552 2.744-2.509 5.075-2.316.786.064.834.053.334-.077-1.215-.318-1.424-.341-1.659-.186m70.325.011c-.269.17-.371 2.958-.13 3.546.232.565 5.067.425 5.771-.167 1.079-.907.919-2.658-.301-3.288-.564-.292-4.905-.365-5.34-.091m43.438.147c-.24.266-.274.652-.234 2.709l.046 2.398.417.027c.367.024.372.018.042-.053-.367-.079-.375-.13-.375-2.382 0-2.856-.123-2.722 2.422-2.648l1.937.056.571.623c.313.342.57.524.57.404 0-1.155-4.518-2.104-5.396-1.134m162.756-.084c-1.604.429-1.298 2.771.362 2.775.199.001.576.113.838.25.263.137.6.25.75.25.15.001.488.113.75.25.263.137.6.25.75.25.15.001.488.113.75.25.263.137.573.249.689.249 1.198 0 4.26 2.407 4.85 3.812 2.243 5.338-2.316 10.609-8.766 10.138-1.613-.118-3.912-.474-4.075-.631-.087-.084-.284-.152-.437-.152-.395 0-2.367-.646-2.56-.839-.089-.088-.3-.161-.47-.161-.489 0-1.791-.652-1.791-.896 0-.122.187-.574.416-1.005.23-.431.417-.883.417-1.004 0-.122.113-.314.25-.428s.25-.339.25-.5.113-.386.25-.5.25-.339.25-.5.113-.386.25-.5a.78.78 0 0 0 .25-.521c0-.172.113-.313.25-.313s.25.067.25.149.205.2.457.263c.251.063.495.165.541.227.093.122.922.533 1.835.911.961.398 2.62.785 3.289.768.469-.012.269-.091-.789-.312-1.838-.384-2.627-.662-4.244-1.491-1.355-.694-1.922-.751-1.922-.191a.76.76 0 0 1-.25.51.75.75 0 0 0-.25.5c0 .161-.113.386-.25.5a.75.75 0 0 0-.25.5c0 .161-.113.386-.25.5a.78.78 0 0 0-.25.527c0 .175-.15.613-.334.973-.647 1.269-.358 1.513 3.172 2.669 8.067 2.641 14.814.414 15.407-5.086.523-4.85-1.089-6.696-7.774-8.906-2.808-.928-3.471-1.344-3.471-2.18 0-.751.378-.916 2.067-.9l1.516.014-.833-.219c-.964-.254-.94-.254-1.89 0m20.937.002c-1.345.323-1.797 1.178-1.046 1.981.236.252.532.458.658.458s.255.063.285.14c.031.077.956.425 2.056.774s2.071.699 2.158.777a.67.67 0 0 0 .389.142c.198 0 .966.363 3.11 1.47 2.961 1.53 3.179 8.009.349 10.401-1.644 1.39-5.847 2.44-7.983 1.995a38 38 0 0 0-2.023-.34c-1.467-.203-2.786-.516-2.992-.71-.087-.082-.299-.149-.471-.149-.38 0-2.735-1.114-2.892-1.367-.061-.1.345-1.126.903-2.282s1.055-2.232 1.103-2.393c.129-.426.781-.363 1.888.183q1.638.808 2.544.965c.239.041.132-.045-.25-.202a73 73 0 0 1-2.139-.957c-1.589-.736-2.266-.696-2.418.142-.033.18-.501 1.243-1.041 2.362-1.15 2.387-1.165 2.293.481 3.077 9.433 4.494 18.495 1.05 17.528-6.661-.213-1.698-1.43-4.021-2.114-4.037-.072-.001-.442-.214-.823-.472-.697-.473-2.522-1.24-4.224-1.775a22 22 0 0 1-1.464-.519c-.301-.127-.663-.231-.804-.231-.476 0-1.732-.858-1.83-1.251-.246-.979.451-1.343 2.515-1.312l1.333.02-.833-.225c-.948-.256-.9-.256-1.953-.004m-222.276.132c1.361.407 1.692 2.206.565 3.066-.684.522-5.127.642-5.319.144-.167-.436-.113-2.734.072-3.081.205-.383 3.527-.475 4.682-.129m-53.592 1.182c-.032.115-.18.548-.328.964-.147.415-.264.94-.26 1.167.008.424.241-.156.605-1.506l.157-.583.269.583c.148.321.354.958.458 1.417.179.793.333 1.418.933 3.791.145.573.277 1.23.292 1.459l.028.416-1.878.047c-2.366.06-2.265.262-1.442-2.88.086-.329.084-.329-.171-.01-.143.178-.259.478-.258.667 0 .189-.13.706-.289 1.15-.28.782-.279.815.031 1.042.33.241 3.441.345 3.993.133.282-.108.371-.98.117-1.137-.081-.05-.199-.503-.262-1.007s-.184-.959-.269-1.012-.155-.414-.155-.804-.11-.854-.245-1.032-.246-.586-.249-.907c-.006-.98-.894-2.594-1.077-1.958m97.639 1.458v1.171l.234-.585c.2-.502.2-.669 0-1.171l-.234-.586zm-98.528 1.498c-.114.182-.205.538-.202.792.006.569.232.227.385-.581.119-.632.096-.658-.183-.211m98.242.061c-.047.124-.412.386-.809.583s-.596.358-.441.358c.421 0 1.468-.665 1.468-.933 0-.296-.106-.3-.218-.008m17.719.464c-.001.15.111.487.248.75.148.284.249.367.25.205 0-.15-.111-.488-.248-.75-.148-.284-.25-.367-.25-.205m-66.21 3.759c-.556.145-.657 3.718-.114 4.062.473.299 5.507.188 6.156-.136 1.641-.819 1.149-3.916-.612-3.859l-.471.015.531.153c1.544.447 1.798 2.886.376 3.606-.425.215-5.214.306-5.727.11-.218-.084-.264-.415-.264-1.914 0-2.149-.263-1.966 2.917-2.033l2.167-.047-2.334-.016c-1.283-.01-2.464.017-2.625.059m225.875 3.802c.244.139.833.233 1.417.225l1-.013-1.167-.221c-1.51-.286-1.762-.284-1.25.009M87.108 46.125l-.197.708q-.116.419.053.25c.183-.182.449-1.25.31-1.25-.046 0-.121.132-.166.292"/></g></svg>