<svg xmlns="http://www.w3.org/2000/svg" viewBox="0 0 512 512"><title>Airplane01</title><g id="Airplane01"><g id="Airplane01-2" data-name="Airplane01"><path d="M204.738,419.1425h0a15.6214,15.6214,0,0,1-11.1292-4.615l-1.12-1.12-30.4142-59.95-3.1816-3.1825-59.95-30.41-1.1239-1.1267a15.7433,15.7433,0,0,1,0-22.2347l20.9741-20.977,52.5977,13.6125a65.4589,65.4589,0,0,1,8.33-10.2277L222.2171,232.81,101.6326,166.4426l-1-1.0042a17.591,17.591,0,0,1-.0038-24.8843l31.3785-31.3813L292.74,157.2855l46.7362-49.951A48.566,48.566,0,0,1,373.97,92.8575a44.4432,44.4432,0,0,1,44.7877,46.131,48.7415,48.7415,0,0,1-14.46,33.1769l-49.553,46.3637,48.432,161.824-31.3814,31.3785a17.5843,17.5843,0,0,1-24.8843-.0038l-1.0041-1-.6812-1.2435L279.0347,289.2215l-46.3106,42.6968a65.5946,65.5946,0,0,1-9.7755,8.02l13.8785,53.6285L215.853,414.5408A15.6255,15.6255,0,0,1,204.738,419.1425ZM116.26,306.2826l54.4929,27.64,7.6779,7.6779,27.6507,54.5034,8.5747-8.5756L199.7068,329.76l7.2818-3.5872a44.3869,44.3869,0,0,0,11.7809-8.5092l.2926-.2821,65.18-60.0866,75.89,137.8916,20.5219-20.5219L332.0855,212.4074l58.3433-54.5794a28.6922,28.6922,0,0,0,8.3857-19.3953A24.4971,24.4971,0,0,0,373.9672,112.81a28.7431,28.7431,0,0,0-20.28,8.5253l-54.8255,58.6131L137.6889,131.7068,117.167,152.2286l136.9739,75.3873-60.1664,65.2564a44.4,44.4,0,0,0-8.6944,12.15l-3.5482,7.4053-56.8974-14.7231Z"/></g></g></svg>